<?xml version="1.0" encoding="UTF-8" standalone="no"?>
<!-- Created with Inkscape (http://www.inkscape.org/) -->

<svg
   width="541"
   height="334"
   viewBox="0 0 143.13958 88.370836"
   version="1.1"
   id="svg4201"
   inkscape:version="1.1 (c68e22c387, 2021-05-23)"
   sodipodi:docname="parent-thumbnail.svg"
   xmlns:inkscape="http://www.inkscape.org/namespaces/inkscape"
   xmlns:sodipodi="http://sodipodi.sourceforge.net/DTD/sodipodi-0.dtd"
   xmlns:xlink="http://www.w3.org/1999/xlink"
   xmlns="http://www.w3.org/2000/svg"
   xmlns:svg="http://www.w3.org/2000/svg">
  <sodipodi:namedview
     id="namedview4203"
     pagecolor="#ffffff"
     bordercolor="#666666"
     borderopacity="1.0"
     inkscape:pageshadow="2"
     inkscape:pageopacity="0.0"
     inkscape:pagecheckerboard="0"
     inkscape:document-units="mm"
     showgrid="false"
     units="px"
     inkscape:zoom="0.60221661"
     inkscape:cx="184.31906"
     inkscape:cy="561.25984"
     inkscape:window-width="1677"
     inkscape:window-height="893"
     inkscape:window-x="374"
     inkscape:window-y="305"
     inkscape:window-maximized="0"
     inkscape:current-layer="layer1" />
  <defs
     id="defs4198">
    <radialGradient
       gradientUnits="userSpaceOnUse"
       gradientTransform="matrix(3.7795276,0,0,3.7855861,-187.17296,1534.8119)"
       r="87.221466"
       fy="87.361275"
       fx="97.986862"
       cy="87.361275"
       cx="97.986862"
       id="radialGradient1301"
       xlink:href="#linearGradient1299"
       inkscape:collect="always" />
    <linearGradient
       id="linearGradient1299"
       inkscape:collect="always">
      <stop
         id="stop1295"
         offset="0"
         style="stop-color:#e5f5db;stop-opacity:1" />
      <stop
         id="stop1297"
         offset="1"
         style="stop-color:#a9dbaf;stop-opacity:1" />
    </linearGradient>
    <linearGradient
       gradientUnits="userSpaceOnUse"
       y2="116.55301"
       x2="135.11401"
       y1="112.39527"
       x1="135.11401"
       id="linearGradient1473"
       xlink:href="#linearGradient1471"
       inkscape:collect="always"
       gradientTransform="translate(-49.522456,406.22569)" />
    <linearGradient
       id="linearGradient1471"
       inkscape:collect="always">
      <stop
         id="stop1467"
         offset="0"
         style="stop-color:#de8787;stop-opacity:1;" />
      <stop
         id="stop1469"
         offset="1"
         style="stop-color:#c83737;stop-opacity:1" />
    </linearGradient>
    <linearGradient
       gradientUnits="userSpaceOnUse"
       y2="305.39984"
       x2="343.09891"
       y1="325.60291"
       x1="330.06097"
       id="linearGradient1256"
       xlink:href="#linearGradient1254"
       inkscape:collect="always"
       gradientTransform="matrix(0.26458333,0,0,0.26458333,-49.522456,406.22569)" />
    <linearGradient
       id="linearGradient1254"
       inkscape:collect="always">
      <stop
         id="stop1250"
         offset="0"
         style="stop-color:#e1c1a3;stop-opacity:1;" />
      <stop
         id="stop1252"
         offset="1"
         style="stop-color:#d1b398;stop-opacity:1" />
    </linearGradient>
    <linearGradient
       gradientUnits="userSpaceOnUse"
       y2="418.95224"
       x2="254.18495"
       y1="410.36594"
       x1="249.07576"
       id="linearGradient1214"
       xlink:href="#linearGradient1212"
       inkscape:collect="always"
       gradientTransform="matrix(0.26458333,0,0,0.26458333,-49.522456,406.22569)" />
    <linearGradient
       id="linearGradient1212"
       inkscape:collect="always">
      <stop
         id="stop1208"
         offset="0"
         style="stop-color:#8dd35f;stop-opacity:1;" />
      <stop
         id="stop1210"
         offset="1"
         style="stop-color:#78bd5f;stop-opacity:1" />
    </linearGradient>
    <linearGradient
       gradientUnits="userSpaceOnUse"
       y2="448.68945"
       x2="272.17773"
       y1="448.77164"
       x1="283.06482"
       id="linearGradient1206"
       xlink:href="#linearGradient1204-5"
       inkscape:collect="always"
       gradientTransform="translate(-187.17149,1535.3412)" />
    <linearGradient
       id="linearGradient1204-5"
       inkscape:collect="always">
      <stop
         id="stop1200-4"
         offset="0"
         style="stop-color:#8dd35f;stop-opacity:1" />
      <stop
         id="stop1202"
         offset="1"
         style="stop-color:#77ba5f;stop-opacity:1" />
    </linearGradient>
    <linearGradient
       gradientUnits="userSpaceOnUse"
       y2="417.052"
       x2="411.9136"
       y1="469.07486"
       x1="406.78491"
       id="linearGradient1334"
       xlink:href="#linearGradient1332"
       inkscape:collect="always"
       gradientTransform="matrix(0.26458333,0,0,0.26458333,-49.522456,406.22569)" />
    <linearGradient
       id="linearGradient1332"
       inkscape:collect="always">
      <stop
         id="stop1328"
         offset="0"
         style="stop-color:#999999;stop-opacity:1" />
      <stop
         id="stop1330"
         offset="1"
         style="stop-color:#cccccc;stop-opacity:1" />
    </linearGradient>
    <linearGradient
       gradientUnits="userSpaceOnUse"
       y2="460.0787"
       x2="297.40875"
       y1="422.4505"
       x1="295.50919"
       id="linearGradient1225"
       xlink:href="#linearGradient1223-7"
       inkscape:collect="always"
       gradientTransform="matrix(0.26458333,0,0,0.26458333,-49.522456,406.22569)" />
    <linearGradient
       id="linearGradient1223-7"
       inkscape:collect="always">
      <stop
         id="stop1219-6"
         offset="0"
         style="stop-color:#78bd5f;stop-opacity:1" />
      <stop
         id="stop1221"
         offset="1"
         style="stop-color:#70b45f;stop-opacity:0;" />
    </linearGradient>
    <radialGradient
       gradientUnits="userSpaceOnUse"
       gradientTransform="matrix(3.438538,0.47551065,-0.15391569,1.1130034,-246.22702,319.49319)"
       r="2.9733737"
       fy="65.976578"
       fx="146.49759"
       cy="65.976578"
       cx="146.49759"
       id="radialGradient1283"
       xlink:href="#linearGradient1281"
       inkscape:collect="always" />
    <linearGradient
       id="linearGradient1281"
       inkscape:collect="always">
      <stop
         id="stop1277"
         offset="0"
         style="stop-color:#ececec;stop-opacity:1;" />
      <stop
         id="stop1279"
         offset="1"
         style="stop-color:#ececec;stop-opacity:0;" />
    </linearGradient>
    <linearGradient
       gradientUnits="userSpaceOnUse"
       y2="320.42395"
       x2="306.7713"
       y1="330.42395"
       x1="325.96234"
       id="linearGradient1326"
       xlink:href="#linearGradient1312"
       inkscape:collect="always"
       gradientTransform="matrix(0.26458333,0,0,0.26458333,-49.522456,406.22569)" />
    <linearGradient
       id="linearGradient1312"
       inkscape:collect="always">
      <stop
         id="stop1308"
         offset="0"
         style="stop-color:#000000;stop-opacity:1" />
      <stop
         id="stop1310"
         offset="1"
         style="stop-color:#6c5353;stop-opacity:1" />
    </linearGradient>
    <linearGradient
       gradientUnits="userSpaceOnUse"
       y2="268.49167"
       x2="397.77271"
       y1="279.91904"
       x1="394.60999"
       id="linearGradient1349"
       xlink:href="#linearGradient1347"
       inkscape:collect="always"
       gradientTransform="matrix(0.26458333,0,0,0.26458333,-49.522456,406.22569)" />
    <linearGradient
       id="linearGradient1347"
       inkscape:collect="always">
      <stop
         id="stop1343"
         offset="0"
         style="stop-color:#483737;stop-opacity:1" />
      <stop
         id="stop1345"
         offset="1"
         style="stop-color:#584343;stop-opacity:0;" />
    </linearGradient>
    <linearGradient
       gradientUnits="userSpaceOnUse"
       y2="465.22849"
       x2="319.58093"
       y1="463.99734"
       x1="315.28934"
       id="linearGradient1383"
       xlink:href="#linearGradient1381"
       inkscape:collect="always"
       gradientTransform="matrix(0.26458333,0,0,0.26458333,-49.522456,406.22569)" />
    <linearGradient
       id="linearGradient1381"
       inkscape:collect="always">
      <stop
         id="stop1377"
         offset="0"
         style="stop-color:#d38d5f;stop-opacity:1;" />
      <stop
         id="stop1379"
         offset="1"
         style="stop-color:#c87137;stop-opacity:1" />
    </linearGradient>
    <radialGradient
       gradientUnits="userSpaceOnUse"
       gradientTransform="matrix(0.32149512,0.0589453,-0.10480793,0.5716357,-34.579526,245.95033)"
       r="8.218215"
       fy="423.09766"
       fx="519.35736"
       cy="423.09766"
       cx="519.35736"
       id="radialGradient1499"
       xlink:href="#linearGradient1495"
       inkscape:collect="always" />
    <linearGradient
       id="linearGradient1495"
       inkscape:collect="always">
      <stop
         id="stop1491"
         offset="0"
         style="stop-color:#ffffff;stop-opacity:1;" />
      <stop
         id="stop1493"
         offset="1"
         style="stop-color:#ffffff;stop-opacity:0;" />
    </linearGradient>
    <linearGradient
       gradientUnits="userSpaceOnUse"
       y2="117.64931"
       x2="41.623234"
       y1="117.64931"
       x1="37.323757"
       id="linearGradient1626"
       xlink:href="#linearGradient1640"
       inkscape:collect="always"
       gradientTransform="translate(-49.522456,406.22569)" />
    <linearGradient
       inkscape:collect="always"
       id="linearGradient1640">
      <stop
         style="stop-color:#c99c7c;stop-opacity:1"
         offset="0"
         id="stop1636" />
      <stop
         style="stop-color:#deaa87;stop-opacity:1"
         offset="1"
         id="stop1638" />
    </linearGradient>
    <linearGradient
       gradientUnits="userSpaceOnUse"
       y2="111.64348"
       x2="40.351494"
       y1="111.50174"
       x1="34.802567"
       id="linearGradient1648"
       xlink:href="#linearGradient1646"
       inkscape:collect="always"
       gradientTransform="translate(-49.522456,406.22569)" />
    <linearGradient
       id="linearGradient1646"
       inkscape:collect="always">
      <stop
         id="stop1642"
         offset="0"
         style="stop-color:#b29686;stop-opacity:1" />
      <stop
         id="stop1644"
         offset="1"
         style="stop-color:#e9c6af;stop-opacity:1" />
    </linearGradient>
    <radialGradient
       gradientUnits="userSpaceOnUse"
       gradientTransform="matrix(1.22962,-0.83992627,0.41318661,0.60488945,-105.61211,485.86433)"
       r="5.5288281"
       fy="111.13006"
       fx="44.300137"
       cy="111.13006"
       cx="44.300137"
       id="radialGradient1664"
       xlink:href="#linearGradient1662"
       inkscape:collect="always" />
    <linearGradient
       id="linearGradient1662"
       inkscape:collect="always">
      <stop
         id="stop1658"
         offset="0"
         style="stop-color:#447821;stop-opacity:1;" />
      <stop
         id="stop1660"
         offset="1"
         style="stop-color:#7ca760;stop-opacity:1" />
    </linearGradient>
    <linearGradient
       inkscape:collect="always"
       xlink:href="#linearGradient961"
       id="linearGradient963"
       x1="37.737278"
       y1="83.829582"
       x2="34.930946"
       y2="82.401634"
       gradientUnits="userSpaceOnUse"
       gradientTransform="translate(-49.522456,406.22569)" />
    <linearGradient
       inkscape:collect="always"
       id="linearGradient961">
      <stop
         style="stop-color:#ab37c8;stop-opacity:1;"
         offset="0"
         id="stop957" />
      <stop
         style="stop-color:#672178;stop-opacity:1"
         offset="1"
         id="stop959" />
    </linearGradient>
    <linearGradient
       inkscape:collect="always"
       xlink:href="#linearGradient961"
       id="linearGradient971"
       x1="32.768032"
       y1="84.689423"
       x2="34.930946"
       y2="82.401634"
       gradientUnits="userSpaceOnUse"
       gradientTransform="translate(-49.522456,406.22569)" />
    <linearGradient
       inkscape:collect="always"
       xlink:href="#linearGradient953"
       id="linearGradient955"
       x1="35.387596"
       y1="86.160942"
       x2="34.930946"
       y2="82.401634"
       gradientUnits="userSpaceOnUse"
       gradientTransform="translate(-49.522456,406.22569)" />
    <linearGradient
       inkscape:collect="always"
       id="linearGradient953">
      <stop
         style="stop-color:#dba9e7;stop-opacity:1"
         offset="0"
         id="stop949" />
      <stop
         style="stop-color:#ab37c8;stop-opacity:1"
         offset="1"
         id="stop951" />
    </linearGradient>
    <linearGradient
       inkscape:collect="always"
       xlink:href="#linearGradient977"
       id="linearGradient979"
       x1="34.499546"
       y1="78.854477"
       x2="34.930946"
       y2="82.401573"
       gradientUnits="userSpaceOnUse"
       gradientTransform="translate(-49.522456,406.22569)" />
    <linearGradient
       inkscape:collect="always"
       id="linearGradient977">
      <stop
         style="stop-color:#ddafe9;stop-opacity:1;"
         offset="0"
         id="stop973" />
      <stop
         style="stop-color:#bc5fd3;stop-opacity:1"
         offset="1"
         id="stop975" />
    </linearGradient>
    <linearGradient
       gradientUnits="userSpaceOnUse"
       y2="469.47223"
       x2="159.7885"
       y1="474.24902"
       x1="159.7885"
       id="linearGradient1618"
       xlink:href="#linearGradient1616"
       inkscape:collect="always"
       gradientTransform="matrix(0.26458333,0,0,0.26458333,-49.522456,406.22569)" />
    <linearGradient
       id="linearGradient1616"
       inkscape:collect="always">
      <stop
         id="stop1612"
         offset="0"
         style="stop-color:#b48e70;stop-opacity:1" />
      <stop
         id="stop1614"
         offset="1"
         style="stop-color:#deaa87;stop-opacity:0" />
    </linearGradient>
    <linearGradient
       gradientTransform="translate(-49.522456,406.22569)"
       y2="114.50529"
       x2="43.040646"
       y1="113.30258"
       x1="43.040646"
       gradientUnits="userSpaceOnUse"
       id="linearGradient1633"
       xlink:href="#linearGradient1616"
       inkscape:collect="always" />
  </defs>
  <g
     inkscape:label="Layer 1"
     inkscape:groupmode="layer"
     id="layer1">
    <g
       id="g4116"
       transform="matrix(0.99901179,0,0,1,23.53239,-447.23626)">
      <path
         id="path990-6"
         style="fill:url(#radialGradient1301);fill-opacity:1;stroke-width:3.94103;stroke-miterlimit:4;stroke-dasharray:none"
         d="m -89.029297,1690.3418 v 334 c 0,0 120.762343,0 270.767577,0 150.00524,0 270.76758,0 270.76758,0 v -334 c 0,0 -120.76234,0 -270.76758,0 -150.005234,0 -270.767577,0 -270.767577,0 z"
         transform="scale(0.26458333)" />
      <path
         d="m 81.989334,513.32812 a 4.9071072,6.8076337 0 0 0 -0.87326,3.87647 4.9071072,6.8076337 0 0 0 4.53591,6.78781 v 7.30533 a 3.8652503,0.7004486 0 0 0 -3.44747,0.58902 h 7.63764 a 3.8652503,0.7004486 0 0 0 -3.44785,-0.58902 v -7.30533 a 4.9071072,6.8076337 0 0 0 4.5359,-6.78781 4.9071072,6.8076337 0 0 0 -0.87287,-3.87647 z"
         style="fill:#ffffff;fill-opacity:1;stroke:none;stroke-width:0.300726;stroke-miterlimit:4;stroke-dasharray:none;stroke-opacity:1"
         id="path1402" />
      <path
         d="m 81.485074,516.94929 a 4.5419268,6.3010189 0 0 0 -0.004,0.25512 4.5419268,6.3010189 0 0 0 4.5419,6.30102 4.5419268,6.3010189 0 0 0 4.54192,-6.30102 4.5419268,6.3010189 0 0 0 -0.004,-0.25512 z"
         style="fill:url(#linearGradient1473);fill-opacity:1;stroke:none;stroke-width:0.213943;stroke-miterlimit:4;stroke-dasharray:none;stroke-opacity:1"
         id="ellipse1421" />
      <path
         d="m 48.753714,469.319 c -0.12282,0.0693 -0.25013,0.13299 -0.3793,0.1943 -0.037,0.0175 -0.0747,0.0342 -0.11214,0.0512 -0.0967,0.0437 -0.19476,0.0857 -0.29456,0.12557 -0.0387,0.0154 -0.0772,0.0311 -0.11627,0.046 -0.13543,0.0516 -0.27263,0.10124 -0.41289,0.14677 -0.15576,0.0505 -0.31446,0.0976 -0.47543,0.14159 -0.32179,0.088 -0.65338,0.16412 -0.99115,0.23203 -0.31202,0.0627 -0.6305,0.11774 -0.95085,0.17001 -0.11163,0.0182 -0.22366,0.0358 -0.33589,0.0532 -0.61217,0.0953 -1.23052,0.18259 -1.83969,0.28163 -0.2967,0.0482 -0.58919,0.10178 -0.87901,0.15865 -0.10663,0.0209 -0.21352,0.0415 -0.31884,0.0641 -0.0512,0.011 -0.10211,0.0222 -0.15297,0.0336 -0.1415,0.0317 -0.28111,0.0658 -0.41961,0.10128 -0.0582,0.0149 -0.11703,0.0293 -0.17467,0.045 -0.18478,0.0502 -0.36729,0.10338 -0.54518,0.16226 -0.15512,0.0513 -0.30782,0.10635 -0.45682,0.16536 -0.14885,0.059 -0.29473,0.12203 -0.43667,0.18965 -0.14208,0.0677 -0.28061,0.14016 -0.41496,0.21756 -0.53723,0.30954 -1.00942,0.70088 -1.39061,1.20613 -0.0953,0.12634 -0.18518,0.25989 -0.26872,0.40101 -0.0835,0.14112 -0.16056,0.28958 -0.23151,0.44648 0,0 -5.3e-4,5.3e-4 -5.3e-4,5.3e-4 -0.003,0.006 -0.005,0.0123 -0.007,0.0181 -0.0442,0.0989 -0.085,0.20201 -0.12403,0.30748 -0.0104,0.0282 -0.0209,0.0566 -0.031,0.0853 -0.0399,0.11381 -0.078,0.22984 -0.11162,0.3514 0,0 0,5.3e-4 0,5.3e-4 -0.0252,0.0911 -0.0487,0.18448 -0.0703,0.28009 0,0 0,5.3e-4 0,5.3e-4 -0.0433,0.19138 -0.0797,0.39184 -0.10801,0.60203 0,0 0,5.3e-4 0,5.3e-4 -0.0141,0.10502 -0.0264,0.21255 -0.0367,0.32246 -1e-5,1.7e-4 2e-5,2.6e-4 0,5.3e-4 -0.0307,0.3301 -0.0434,0.68241 -0.0372,1.05884 0.004,0.25126 0.0166,0.51285 0.0382,0.786 -0.0988,-0.16835 -0.19734,-0.32232 -0.29456,-0.4625 0,0 0,-5.3e-4 0,-5.3e-4 -0.19449,-0.2804 -0.38536,-0.50549 -0.57102,-0.68109 -0.0929,-0.0878 -0.18435,-0.16328 -0.2744,-0.22686 -0.0449,-0.0317 -0.0897,-0.0609 -0.13385,-0.0868 -1.3e-4,-8e-5 -2.6e-4,8e-5 -5.3e-4,0 -0.26551,-0.1559 -0.51652,-0.20851 -0.74776,-0.17622 -0.0771,0.0108 -0.1518,0.0309 -0.22427,0.06 -0.0381,0.0153 -0.0754,0.0337 -0.11214,0.0537 -0.0631,0.0344 -0.12356,0.0764 -0.18242,0.12403 -0.008,0.006 -0.0156,0.0121 -0.0232,0.0186 -0.0529,0.0447 -0.10384,0.0961 -0.15297,0.15089 -0.0403,0.0449 -0.0781,0.096 -0.11575,0.14728 -0.0231,0.0314 -0.0472,0.0599 -0.0693,0.0935 -0.0562,0.0859 -0.10949,0.1775 -0.15864,0.27699 0,0 0,5.3e-4 0,5.3e-4 -0.002,0.005 -0.004,0.01 -0.006,0.0145 -0.0396,0.0813 -0.0764,0.16761 -0.1111,0.25683 -0.0105,0.027 -0.0204,0.055 -0.0305,0.0827 -0.0271,0.0749 -0.0524,0.15197 -0.076,0.23151 -0.008,0.0255 -0.0156,0.0506 -0.0227,0.0765 -0.0295,0.10648 -0.057,0.21576 -0.0801,0.32917 -0.0222,0.10919 -0.0403,0.22226 -0.0563,0.33694 -0.005,0.0382 -0.01,0.077 -0.0145,0.11575 -0.0102,0.0851 -0.0186,0.17146 -0.0253,0.2589 -0.003,0.0375 -0.006,0.0748 -0.008,0.11266 -0.007,0.1227 -0.0114,0.24646 -0.0114,0.37258 v 5.3e-4 c 1e-5,0.12395 0.005,0.24987 0.0119,0.3762 0.002,0.0436 0.006,0.0874 0.009,0.13126 0.007,0.0908 0.0156,0.18191 0.0264,0.27337 0.005,0.0403 0.01,0.0805 0.015,0.12092 0.0178,0.13089 0.0381,0.26217 0.0641,0.39326 0.0576,0.29081 0.13567,0.58096 0.23564,0.86507 0.1,0.2841 0.22187,0.56211 0.36742,0.82888 0.21833,0.40017 0.48973,0.77512 0.81959,1.1064 0.0991,0.0995 0.20541,0.19352 0.31522,0.28473 0.0206,0.0171 0.041,0.0344 0.062,0.0512 0.11085,0.0887 0.22659,0.17327 0.34829,0.2527 0.0731,0.0477 0.14723,0.0944 0.22428,0.13849 0.0718,0.0411 0.1453,0.0806 0.22066,0.11834 0.3125,0.11716 0.65048,0.19795 1.02009,0.23151 8.93555,12.73849 15.0595,4.90864 17.34985,-2.60707 0.0961,-0.37217 0.18539,-0.74397 0.26975,-1.11466 0.008,-0.036 0.0161,-0.0724 0.0243,-0.10852 0.0559,-0.24891 0.106,-0.49608 0.15658,-0.74311 0.32606,-1.65836 0.48929,-3.41813 0.03,-4.90823 -2.79974,-0.28342 -5.56437,-1.64573 -5.98103,-5.61826 z"
         style="fill:#e1c1a3;fill-opacity:1;stroke:none;stroke-width:0.403024px;stroke-linecap:butt;stroke-linejoin:miter;stroke-opacity:1"
         id="path967" />
      <path
         sodipodi:nodetypes="ccccccccccc"
         d="m 45.599384,461.64349 c -2.00396,-0.002 -3.88269,0.58642 -5.31234,1.9048 -2.28563,0.38237 -4.48535,-0.27172 -6.87968,1.42523 -3.93038,2.72737 -3.40429,9.37054 -3.06389,14.96705 0.55319,9.09643 -4.12702,18.70778 -8.33593,8.94054 -0.93252,12.30718 14.7574,5.87319 13.87667,-4.69377 -4.82316,-2.41614 -2.3815,-11.81234 0.78342,-6.4208 -0.69043,-8.73487 7.75796,-6.00712 12.08608,-8.44754 0.41666,3.97253 3.18154,5.33493 5.98127,5.61836 0.6479,2.10183 0.0641,4.7442 -0.48083,6.87441 9.8305,-10.26327 -0.45664,-20.15918 -8.65477,-20.16828 z"
         style="fill:#6c5353;stroke:none;stroke-width:0.403024px;stroke-linecap:butt;stroke-linejoin:miter;stroke-opacity:1"
         id="path981" />
      <path
         d="m 35.884214,484.18734 c 0.51587,6.18924 -4.65163,10.95323 -8.83564,11.3714 7.23406,12.76255 13.90531,12.34605 19.41898,2.96778 -0.94171,-0.16124 -3.35236,-2.12645 -4.02146,-3.24012 0.16865,-0.76638 0.96407,-2.729 1.68516,-4.40283 -2.13999,-0.69134 -4.55805,-2.65995 -7.22695,-6.46472 -0.1848,-0.0168 -0.36145,-0.0452 -0.53123,-0.0842 -0.16978,-0.039 -0.3326,-0.0887 -0.48886,-0.14728 z"
         style="fill:url(#linearGradient1256);fill-opacity:1;stroke:none;stroke-width:0.403024px;stroke-linecap:butt;stroke-linejoin:miter;stroke-opacity:1"
         id="path986" />
      <path
         sodipodi:nodetypes="cccccc"
         d="m 24.035324,494.91175 c -7.10796,3.4098 -18.5987995,19.76271 -23.22492953,30.02452 2.00432003,-2.14904 6.91825003,-3.13455 12.92323953,-2.07326 3.86863,-3.25746 10.4826,-9.8157 17.22685,-21.59868 -1.28283,-1.47884 -2.58773,-3.36944 -3.91191,-5.70559 -1.11702,0.11164 -2.16355,-0.0822 -3.01325,-0.64699 z"
         style="fill:url(#linearGradient1214);fill-opacity:1;stroke:none;stroke-width:0.403024px;stroke-linecap:butt;stroke-linejoin:miter;stroke-opacity:1"
         id="path997" />
      <path
         id="path1016-4"
         style="fill:url(#linearGradient1206);fill-opacity:1;stroke:none;stroke-width:1.52324px;stroke-linecap:butt;stroke-linejoin:miter;stroke-opacity:1"
         d="m 175.625,1884.1953 c -17.17705,29.2167 -37.3282,35.3881 -59.19141,9.6524 0.19427,0.2286 0.38811,0.4717 0.58203,0.6953 -16.08068,28.0947 -31.958792,48.3151 -45.166011,62.5175 0.194324,20.5955 1.749742,46.562 -1.011718,67.2813 45.339449,0 49.461579,0 110.900389,0 1.49753,0 1.21152,0 2.70313,0 1.50483,-4.8499 3.38734,-9.5536 5.7832,-14.0606 h -41.32227 l 35.65039,-96.582 h 37.09961 c -15.61905,-23.8161 -30.33512,-27.0648 -46.02734,-29.5039 z"
         transform="scale(0.26458333)" />
      <path
         sodipodi:nodetypes="ccccccccccccccccc"
         d="M 2.2630145,531.83456 H 37.944034 l 1.70998,-0.008 1.11569,-3.65818 c -2.72291,-0.55362 -5.48166,-1.01028 -8.45788,-1.39216 -7.32399,-0.93977 -13.78057,-2.87961 -18.84626,-3.96554 -10.8142395,-1.91126 -18.0958195,2.81248 -11.2025495,9.02363 z m 37.3909995,-0.008 -0.003,0.008 h 12.60595 l 1.71669,-0.0729 z m 14.32005,-0.0651 0.59273,-0.003 c -0.023,-0.007 -0.0439,-0.0127 -0.0667,-0.0196 z"
         style="fill:#e1c1a3;fill-opacity:1;stroke:none;stroke-width:0.403024px;stroke-linecap:butt;stroke-linejoin:miter;stroke-opacity:1"
         id="path1007-9" />
      <path
         d="m 40.372834,530.08841 c -5.28005,0.23421 -11.62347,1.01264 -16.60519,1.79834 h 16.70389 z"
         style="fill:#808080;stroke:none;stroke-width:0.403024px;stroke-linecap:butt;stroke-linejoin:miter;stroke-opacity:1"
         id="path1035" />
      <path
         d="m 48.829684,506.33276 -9.4325,25.55399 h 36.43602 l 7.55044,-25.55399 z"
         style="fill:url(#linearGradient1334);fill-opacity:1;stroke:none;stroke-width:0.403024px;stroke-linecap:butt;stroke-linejoin:miter;stroke-opacity:1"
         id="path1037" />
      <path
         sodipodi:nodetypes="cccsccsc"
         d="m 23.883914,511.99598 c -1.51939,1.99353 -2.97469,3.72302 -4.3341,5.21828 0.60682,2.67196 1.8526,5.68464 2.94142,7.72718 3.11404,0.72362 6.49529,1.42613 10.08879,1.88722 2.87893,0.3694 5.55332,0.81056 8.18968,1.33997 l 1.03973,-2.81688 h -6.33243 c -7.50218,0 -12.1598,-5.98903 -11.59309,-13.35577 z"
         style="fill:url(#linearGradient1225);fill-opacity:1;stroke:none;stroke-width:0.502999;stroke-linecap:butt;stroke-linejoin:miter;stroke-miterlimit:4;stroke-dasharray:none;stroke-opacity:1"
         id="path1030" />
      <ellipse
         transform="rotate(21.218471)"
         ry="3.3408689"
         rx="2.9733737"
         cy="462.58652"
         cx="247.35567"
         id="path1275"
         style="fill:url(#radialGradient1283);fill-opacity:1;stroke:none;stroke-width:0.502999;stroke-miterlimit:4;stroke-dasharray:none;stroke-opacity:1" />
      <path
         sodipodi:nodetypes="cccc"
         d="m 33.809924,482.06447 c 1.39482,5.81583 -3.89142,10.99646 -6.86831,13.50977 4.20204,-0.34733 9.46282,-5.14539 8.9426,-11.3869 -0.96759,-0.48471 -1.63864,-1.25207 -2.07429,-2.12287 z"
         style="fill:url(#linearGradient1326);fill-opacity:1;stroke:none;stroke-width:0.264583px;stroke-linecap:butt;stroke-linejoin:miter;stroke-opacity:1"
         id="path1303" />
      <path
         sodipodi:nodetypes="ccccccc"
         id="path1336-0"
         style="fill:#584343;fill-opacity:1;stroke:none;stroke-width:0.403024px;stroke-linecap:butt;stroke-linejoin:miter;stroke-opacity:1"
         d="m 49.574854,489.77149 c -1.53324,1.2428 -3.35569,1.78705 -5.4436,1.1126 -0.72104,1.67373 -1.51652,3.63599 -1.68516,4.40231 0.6691,1.11367 3.07975,3.07888 4.02146,3.24012 2.39577,0.37237 4.70564,0.81721 7.02489,2.33525 1.3193,-0.78355 2.55149,-1.80234 3.67109,-3.12797 -8.44627,-1.61889 -9.64386,-5.51992 -7.58868,-7.96231 z" />
      <path
         sodipodi:nodetypes="ccccc"
         d="m 54.468614,474.31559 c 0.1234,0.61141 0.27314,1.99184 0.68058,2.93935 -0.19454,1.4487 -0.49359,3.00258 -0.89504,4.55683 1.06109,-1.1078 1.88658,-2.21123 2.50682,-3.2985 -0.63781,-1.58617 -1.35181,-3.08086 -2.29236,-4.19768 z"
         style="fill:url(#linearGradient1349);fill-opacity:1;stroke:none;stroke-width:0.264583px;stroke-linecap:butt;stroke-linejoin:miter;stroke-opacity:1"
         id="path1338" />
      <path
         d="m 35.220174,527.19867 c -1.04504,0.40364 -1.94669,1.26244 -2.66702,3.51916 0.63045,-0.0685 1.25995,-0.13408 1.88877,-0.19482 0.66307,-2.1822 1.78783,-2.13433 2.77968,-3.00757 -0.65899,-0.11053 -1.32675,-0.21559 -2.00143,-0.31677 z"
         style="fill:url(#linearGradient1383);fill-opacity:1;stroke:none;stroke-width:0.264583px;stroke-linecap:butt;stroke-linejoin:miter;stroke-opacity:1"
         id="path1357" />
      <ellipse
         transform="matrix(0.99914517,0.04133919,-0.09130604,0.99582288,0,0)"
         ry="0.95268989"
         rx="1.9678195"
         cy="526.46906"
         cx="83.52951"
         id="path1362"
         style="fill:#ffeeaa;fill-opacity:1;stroke:none;stroke-width:0.484481;stroke-miterlimit:4;stroke-dasharray:none;stroke-opacity:1" />
      <ellipse
         style="fill:#d7f4ee;fill-opacity:1;stroke:none;stroke-width:0.403194;stroke-miterlimit:4;stroke-dasharray:none;stroke-opacity:1"
         id="ellipse1367"
         cx="83.523712"
         cy="526.37598"
         rx="1.6376568"
         ry="0.79284668"
         transform="matrix(0.99914517,0.04133919,-0.09130604,0.99582288,0,0)" />
      <path
         sodipodi:nodetypes="cccc"
         d="m 86.023274,522.87852 c 2.96587,0.11488 5.1999,-4.87394 4.03386,-9.55032 h -0.96583 c 1.49726,2.98455 -0.74594,8.56492 -3.06803,9.55032 z"
         style="opacity:0.336232;fill:url(#radialGradient1499);fill-opacity:1;stroke:none;stroke-width:1.40191;stroke-miterlimit:4;stroke-dasharray:none;stroke-opacity:1"
         id="ellipse1483" />
      <path
         sodipodi:nodetypes="ccccccc"
         d="m -13.892316,519.57784 0.56807,10.4924 0.33044,1.83651 h 11.5929905 l 0.3311,-1.83651 0.56805997,-10.4924 z"
         inkscape:transform-center-y="21.997841"
         style="fill:url(#linearGradient1626);fill-opacity:1;stroke:none;stroke-width:0.337021;stroke-miterlimit:4;stroke-dasharray:none;stroke-opacity:1"
         id="path1515" />
      <rect
         ry="0.31595713"
         y="515.87683"
         x="-14.719903"
         height="3.7012119"
         width="15.045578"
         id="rect1526"
         style="fill:url(#linearGradient1648);fill-opacity:1;stroke:none;stroke-width:0.33702;stroke-miterlimit:4;stroke-dasharray:none;stroke-opacity:1" />
      <path
         d="m 1.9535945,507.77881 c -2.95459,-0.12244 -6.44804,4.36395 -8.28136,8.09772 h 2.32755 c 1.36958,-0.6707 2.74736,-1.27548 4.07978997,-1.56926 3.96142003,-0.87344 6.00713003,-2.86947 3.64931003,-5.7853 -0.55353,-0.48613 -1.1524,-0.71735 -1.77529,-0.74316 z"
         style="fill:url(#radialGradient1664);fill-opacity:1;stroke:none;stroke-width:0.337021px;stroke-linecap:butt;stroke-linejoin:miter;stroke-opacity:1"
         id="path1536" />
      <path
         d="m -14.326756,511.06608 c -3.28924,0.0273 -6.74227,2.30992 -6.53965,7.57902 0.43301,3.13836 4.70101,-6.14825 10.57403,-2.76857 h 1.6633805 c 0.048,-3.05689 -2.7583305,-4.83483 -5.6977605,-4.81045 z"
         style="fill:#659345;fill-opacity:1;stroke:none;stroke-width:0.337021px;stroke-linecap:butt;stroke-linejoin:miter;stroke-opacity:1"
         id="path1538" />
      <path
         d="m -10.874266,487.60429 c -1.41398,-0.0445 -2.94107,0.45335 -4.59257,0.89587 l 0.26133,0.97749 c 1.6771,-0.44937 3.15956,-0.89885 4.29899,-0.86296 1.1394305,0.0359 1.9410305,0.42743 2.6349505,1.91286 1.35704,2.90495 1.74831,10.10846 0.4351,25.34898 h 1.0137 c 1.31367,-15.21805 1.04569,-22.39967 -0.53318,-25.77947 -0.8089,-1.73157 -2.10434,-2.44823 -3.5183205,-2.49277 z"
         style="color:#000000;font-style:normal;font-variant:normal;font-weight:normal;font-stretch:normal;font-size:medium;line-height:normal;font-family:sans-serif;font-variant-ligatures:normal;font-variant-position:normal;font-variant-caps:normal;font-variant-numeric:normal;font-variant-alternates:normal;font-variant-east-asian:normal;font-feature-settings:normal;font-variation-settings:normal;text-indent:0;text-align:start;text-decoration:none;text-decoration-line:none;text-decoration-style:solid;text-decoration-color:#000000;letter-spacing:normal;word-spacing:normal;text-transform:none;writing-mode:lr-tb;direction:ltr;text-orientation:mixed;dominant-baseline:auto;baseline-shift:baseline;text-anchor:start;white-space:normal;shape-padding:0;shape-margin:0;inline-size:0;clip-rule:nonzero;display:inline;overflow:visible;visibility:visible;isolation:auto;mix-blend-mode:normal;color-interpolation:sRGB;color-interpolation-filters:linearRGB;solid-color:#000000;solid-opacity:1;vector-effect:none;fill:#53536c;fill-opacity:1;fill-rule:nonzero;stroke:none;stroke-width:0.337021;stroke-linecap:butt;stroke-linejoin:miter;stroke-miterlimit:4;stroke-dasharray:none;stroke-dashoffset:0;stroke-opacity:1;color-rendering:auto;image-rendering:auto;shape-rendering:auto;text-rendering:auto;enable-background:accumulate;stop-color:#000000"
         id="path1556" />
      <path
         sodipodi:nodetypes="ccc"
         id="path1562"
         d="m -14.591506,488.62726 c 1.28,3.25055 2.49339,3.71137 4.8300305,2.08522 -3.3653305,-3.9256 -2.9612705,-2.20013 -4.8300305,-2.08522 z"
         style="fill:url(#linearGradient963);fill-opacity:1;stroke:none;stroke-width:0.33702px;stroke-linecap:butt;stroke-linejoin:miter;stroke-opacity:1" />
      <path
         sodipodi:nodetypes="ccc"
         id="path1566"
         d="m -14.591506,488.62726 c 0.55024,4.22808 -0.5536,2.94391 -4.23426,4.31936 2.59769,-11.87747 0.23313,-4.04857 4.23426,-4.31936 z"
         style="fill:url(#linearGradient971);fill-opacity:1;stroke:none;stroke-width:0.33702px;stroke-linecap:butt;stroke-linejoin:miter;stroke-opacity:1" />
      <path
         sodipodi:nodetypes="ccc"
         id="path1564"
         d="m -14.591506,488.62726 c -1.98606,3.06345 -2.75546,4.60116 0.68088,5.10914 2.19505,-1.50467 2.89507,-1.78237 -0.68088,-5.10914 z"
         style="fill:url(#linearGradient955);fill-opacity:1;stroke:none;stroke-width:0.33702px;stroke-linecap:butt;stroke-linejoin:miter;stroke-opacity:1" />
      <path
         sodipodi:nodetypes="ccc"
         id="path1568"
         d="m -14.591506,488.62726 c -4.11204,-0.43422 -1.81433,-5.1897 -0.89367,-6.14924 1.59778,0.5815 3.66738,4.30822 0.89367,6.14924 z"
         style="fill:url(#linearGradient979);fill-opacity:1;stroke:none;stroke-width:0.33702px;stroke-linecap:butt;stroke-linejoin:miter;stroke-opacity:1" />
      <path
         sodipodi:nodetypes="ccccc"
         id="path1570"
         d="m -14.591506,488.62726 c 0.44873,-0.0639 0.81199,0.0298 1.17027,0.13282 5.1946305,2.2941 4.8019105,-2.04797 5.5747405,-3.02659 -1.80073,-0.45423 -5.6548605,-3.76542 -6.1918005,2.06393 -0.0711,0.52552 -0.32993,0.6072 -0.55321,0.82984 z"
         style="fill:#cd87de;stroke:none;stroke-width:0.33702px;stroke-linecap:butt;stroke-linejoin:miter;stroke-opacity:1" />
      <path
         sodipodi:nodetypes="cccccc"
         id="path1572"
         d="m -14.591506,488.62726 c -0.27899,-0.0138 -0.4829,-0.22999 -0.71879,-0.59051 -2.7079,-4.55909 -5.50186,-0.32699 -6.10328,0.27848 0.66678,1.11562 2.05373,4.09181 5.73443,0.98615 0.77436,-0.51445 0.85612,-0.6485 1.08764,-0.67406 z"
         style="fill:#cd87de;stroke:none;stroke-width:0.33702px;stroke-linecap:butt;stroke-linejoin:miter;stroke-opacity:1" />
      <path
         d="m -6.0791155,486.20634 c -0.007,0 -0.0119,0.005 -0.0119,0.0114 v 29.65918 h 0.86868 v -29.65918 c 0,-0.007 -0.005,-0.0114 -0.0119,-0.0114 z"
         style="fill:#917c6f;fill-opacity:1;stroke:none;stroke-width:0.264583;stroke-miterlimit:4;stroke-dasharray:none;stroke-opacity:1"
         id="rect1587" />
      <rect
         ry="0.011811767"
         y="500.3418"
         x="-7.7797179"
         height="0.92131698"
         width="3.3072915"
         id="rect1605"
         style="fill:#484537;fill-opacity:1;stroke:none;stroke-width:0.264583;stroke-miterlimit:4;stroke-dasharray:none;stroke-opacity:1" />
      <path
         d="m -13.304516,530.17833 0.31058,1.72857 h 11.5930905 l 0.31161,-1.72857 z"
         style="fill:url(#linearGradient1618);fill-opacity:1;stroke:none;stroke-width:0.264583px;stroke-linecap:butt;stroke-linejoin:miter;stroke-opacity:1"
         id="path1607" />
      <path
         d="m -13.892076,519.57794 0.0894,1.64693 h 13.21160047 l 0.0894,-1.64693 z"
         inkscape:transform-center-y="21.997841"
         style="fill:url(#linearGradient1633);fill-opacity:1;stroke:none;stroke-width:0.337021;stroke-miterlimit:4;stroke-dasharray:none;stroke-opacity:1"
         id="path1628" />
      <path
         id="rect981"
         style="fill:#6c5353;fill-opacity:1;stroke-width:4.62527"
         d="m 302.06055,1690.3418 v 58.9766 c 0,0.5193 0.41812,0.9375 0.9375,0.9375 h 149.50781 v -59.9141 c 0,0 -91.58049,0 -150.44531,0 z"
         transform="scale(0.26458333)" />
      <path
         id="rect983"
         style="fill:#d7e3f4;fill-opacity:1;stroke-width:4.15926"
         d="m 309.38477,1690.3418 v 52.7754 c 0,0.4593 0.37078,0.8281 0.83007,0.8281 h 142.29102 v -53.6035 c 0,0 -89.1566,0 -143.12109,0 z"
         transform="scale(0.26458333)" />
      <path
         id="path1351"
         style="fill:#c8b7b7;stroke:none;stroke-width:0.999999px;stroke-linecap:butt;stroke-linejoin:miter;stroke-opacity:1"
         d="m 309.38477,1690.3418 v 52.7754 c 0,0.4593 0.36887,0.8281 0.82812,0.8281 h 142.29297 v -53.6035 c 0,0 -89.1566,0 -143.12109,0 z"
         transform="scale(0.26458333)" />
      <path
         id="path967-7"
         style="fill:#e9c6af;fill-opacity:1;stroke:none;stroke-width:0.436698px;stroke-linecap:butt;stroke-linejoin:miter;stroke-opacity:1"
         d="m 371.15625,1690.3418 c -0.008,0.067 -0.0171,0.1327 -0.0234,0.2012 v 0 c -0.034,0.3579 -0.0455,0.7386 -0.0391,1.1465 0.004,0.2721 0.0191,0.5556 0.041,0.8516 -0.10697,-0.1826 -0.21562,-0.3481 -0.32032,-0.5 v 0 c -0.21089,-0.3039 -0.416,-0.548 -0.61718,-0.7383 -0.10054,-0.095 -0.20132,-0.1753 -0.29883,-0.2441 -0.0488,-0.034 -0.0965,-0.068 -0.14453,-0.096 -0.28763,-0.169 -0.55993,-0.2246 -0.81055,-0.1895 -0.0835,0.011 -0.16553,0.034 -0.24414,0.064 -0.0412,0.015 -0.081,0.038 -0.1211,0.059 -0.0684,0.038 -0.13339,0.083 -0.19726,0.1347 -0.008,0.01 -0.016,0.012 -0.0273,0.02 -0.0575,0.048 -0.11115,0.1028 -0.16407,0.1621 -0.0438,0.049 -0.0861,0.1046 -0.12695,0.1601 -0.0265,0.034 -0.0504,0.065 -0.0742,0.1016 -0.0608,0.093 -0.11858,0.1931 -0.17187,0.3008 -0.002,0 -0.004,0.01 -0.008,0.014 -0.0431,0.088 -0.0833,0.1806 -0.12109,0.2773 -0.0113,0.03 -0.0219,0.062 -0.0332,0.092 -0.0302,0.081 -0.0563,0.1658 -0.082,0.252 -0.008,0.026 -0.0141,0.054 -0.0254,0.082 -0.0302,0.1153 -0.0606,0.2346 -0.0859,0.3574 -0.0227,0.1183 -0.0432,0.2413 -0.0605,0.3652 -0.004,0.041 -0.0118,0.083 -0.0156,0.125 -0.0113,0.092 -0.0198,0.1864 -0.0274,0.2813 -0.003,0.04 -0.008,0.08 -0.008,0.1211 -0.008,0.133 -0.01,0.2676 -0.01,0.4043 0,0.1342 4.3e-4,0.2713 0.01,0.4082 0.002,0.047 0.008,0.095 0.0117,0.1426 0.008,0.098 0.0161,0.1939 0.0312,0.2929 0.004,0.044 0.01,0.087 0.0137,0.1309 0.0189,0.1417 0.042,0.2857 0.0703,0.4277 0.0624,0.3152 0.14777,0.6277 0.25586,0.9356 0.10847,0.308 0.23888,0.6094 0.39649,0.8984 0.23659,0.4336 0.53124,0.8403 0.88867,1.1992 0.10734,0.1077 0.22274,0.2096 0.3418,0.3086 0.0227,0.019 0.0457,0.04 0.0684,0.057 0.12019,0.096 0.24505,0.1892 0.37696,0.2754 0.079,0.052 0.15866,0.1008 0.24219,0.1484 0.0779,0.045 0.15859,0.088 0.24023,0.1289 0.55899,6.7064 -5.03869,11.8692 -9.57227,12.3223 7.83848,13.8288 15.0667,13.3766 21.04102,3.2148 -1.0204,-0.1746 -3.63245,-2.303 -4.35742,-3.5098 0.18255,-0.8304 1.04678,-2.9578 1.82812,-4.7714 -0.0499,-0.015 -0.10245,-0.041 -0.15234,-0.059 5.52442,1.9153 9.36287,-4.0084 11.11914,-9.7715 0.10431,-0.4033 0.19993,-0.8054 0.29102,-1.207 0.008,-0.039 0.0198,-0.078 0.0273,-0.1172 0.0605,-0.2699 0.11512,-0.539 0.16992,-0.8067 0.292,-1.4847 0.46132,-3.0451 0.23242,-4.4531 -3.66339,0 -15.06565,0 -19.75781,0 z"
         transform="scale(0.26458333)" />
      <path
         id="path981-7"
         style="fill:#916f6f;stroke:none;stroke-width:0.436698px;stroke-linecap:butt;stroke-linejoin:miter;stroke-opacity:1"
         d="m 364.05078,1690.3418 c 0.0412,1.534 0.14258,3.0794 0.23242,4.5566 0.59944,9.8565 -4.47263,20.2709 -9.0332,9.6875 -1.01042,13.3355 15.98945,6.364 15.03516,-5.0859 -5.22615,-2.618 -2.57971,-12.799 0.84961,-6.957 -0.0652,-0.8246 -0.0522,-1.5533 0.0234,-2.2012 -1.68786,0 -5.29269,0 -7.10742,0 z m 26.85938,0 c 0.34685,2.1086 -0.20068,4.5592 -0.71875,6.584 2.14393,-2.2383 3.40265,-4.462 3.97656,-6.584 -0.57499,0 -2.65373,0 -3.25781,0 z"
         transform="scale(0.26458333)" />
      <path
         id="path997-0"
         style="fill:#d38d5f;fill-opacity:1;stroke:none;stroke-width:0.115543px;stroke-linecap:butt;stroke-linejoin:miter;stroke-opacity:1"
         d="m 94.574694,452.73396 c -1.83517,0.88036 -5.11722,5.60413 -6.72156,8.68474 h 3.83181 c 0.43215,-0.49286 0.93172,-1.10871 1.45521,-1.78903 0.009,0.57026 0.025,1.16576 0.0341,1.78903 h 9.883116 l 1.19786,-2.63756 0.24185,-2.77296 c -1.18476,-1.80653 -2.30095,-2.0531 -3.49126,-2.23811 -2.267876,1.07615 -4.153116,1.62406 -5.567096,-0.85059 -0.32024,0.032 -0.62044,-0.0236 -0.86403,-0.18552 z"
         sodipodi:nodetypes="ccccccccccc" />
      <path
         id="path1435"
         style="fill:#aca793;stroke:none;stroke-width:0.999999px;stroke-linecap:butt;stroke-linejoin:miter;stroke-opacity:1"
         d="m 452.50586,1706.0566 -5.75,4.1075 -5.71289,16.6054 -9.82227,6.6075 -3.11718,10.5683 h 24.40234 z"
         transform="scale(0.26458333)" />
      <path
         id="path1006-6"
         style="fill:#e9afaf;fill-opacity:1;stroke:none;stroke-width:0.0727014px;stroke-linecap:butt;stroke-linejoin:miter;stroke-opacity:1"
         d="m 111.08221,454.65736 c -0.86843,0.97288 -1.64778,2.04276 -2.28979,3.17448 -0.83912,-1.66555 -1.60146,-2.2305 -2.38538,-3.10627 -2.20373,0.30007 -3.41905,0.97404 -3.82664,1.12965 -0.86977,0.30225 -3.253186,3.02251 -4.385256,5.56348 h 4.017836 c 0.29756,-0.2203 0.58827,-0.42047 0.87126,-0.59738 0.001,0.002 0.003,0.003 0.004,0.005 0.15982,0.14287 0.28446,0.34806 0.38706,0.59273 h 10.73112 c 0.0308,-0.18223 0.0568,-0.35536 0.0925,-0.54674 0.11799,0.10755 0.26406,0.11014 0.36483,0.24443 0.0806,0.10745 0.16129,0.20398 0.24185,0.30231 h 4.56561 c -1.28009,-1.71469 -3.1593,-3.61842 -4.41782,-5.27255 -0.12939,-0.17005 -0.25657,-0.26903 -0.4625,-0.38861 -1.29514,-0.49965 -2.4731,-1.0725 -3.50883,-1.10019 z" />
      <path
         id="path994-8"
         style="fill:#e9c6af;fill-opacity:1;stroke:none;stroke-width:0.0727014px;stroke-linecap:butt;stroke-linejoin:miter;stroke-opacity:1"
         d="m 108.95624,449.23185 c -0.3029,0.003 -0.57854,0.0645 -0.78445,0.23151 -0.0696,0.24371 -0.0779,0.61599 -0.71107,0.59066 -0.0718,-0.003 0.44422,0.65775 -0.27388,0.74001 -0.28735,0.0329 0.36732,0.54205 -0.24598,0.66869 -0.16046,0.0342 -0.33871,0.0467 -0.51212,0.0341 0.16206,0.22029 0.39326,0.36775 0.6258,0.53381 0.0546,0.0591 0.10717,0.11154 0.16072,0.16692 -0.0167,-0.0173 -0.0323,-0.0314 -0.0491,-0.0491 0.27183,0.8595 0.15377,1.44254 -0.17931,2.38693 0.61385,0.79784 1.34386,1.45031 1.78232,2.46704 0.37573,-0.83141 1.06325,-1.63008 1.72496,-2.29496 -0.75725,0.10753 -0.8048,-0.42022 -0.80822,-1.1069 -0.0123,7.9e-4 -0.0258,-0.002 -0.0382,-10e-4 1.38143,-0.0526 1.93958,-2.11539 1.7911,-4.09226 -0.0573,-0.002 -0.10888,0.0166 -0.16123,0.0563 -0.25807,0.18529 -1.41259,-0.33958 -2.3213,-0.33176 z m -1.46348,3.24063 c 0.0284,0.027 0.0572,0.0547 0.0853,0.0806 -0.0281,-0.026 -0.0568,-0.0536 -0.0853,-0.0806 z m 0.74001,0.61288 c 0.0166,0.0115 0.0327,0.021 0.0491,0.032 -0.0164,-0.0111 -0.0325,-0.0206 -0.0491,-0.032 z m 0.30179,0.18965 c 0.024,0.0136 0.0477,0.0271 0.0713,0.0398 -0.0236,-0.0127 -0.0473,-0.0261 -0.0713,-0.0398 z m 0.30902,0.15503 c 0.0149,0.006 0.0303,0.0137 0.045,0.0196 -0.0147,-0.006 -0.0301,-0.0133 -0.045,-0.0196 z m 0.56379,0.15968 c 0.0233,0.003 0.0459,0.004 0.0687,0.006 -0.0229,-0.002 -0.0454,-0.003 -0.0687,-0.006 z" />
      <path
         id="path996-3"
         style="fill:#6c5d53;fill-opacity:1;stroke:none;stroke-width:0.274777px;stroke-linecap:butt;stroke-linejoin:miter;stroke-opacity:1"
         d="m 401.84961,1690.3418 c -0.14393,0.5647 -0.18767,1.2032 -0.28516,1.9531 -0.10167,1.2174 -4.3812,1.8166 -2.81054,5.2989 0.36623,1.5054 -3.60936,3.5393 0.29297,5.6718 -0.54206,2.8527 2.79608,3.5504 5.13867,3.0508 2.31798,-0.4787 -0.15625,-2.403 0.92968,-2.5273 2.71416,-0.3107 0.76371,-2.8097 1.03516,-2.7989 2.39286,0.096 2.42456,-1.3113 2.6875,-2.2324 3.11308,-2.5244 10.43974,1.3127 11.74023,0.3789 0.53473,-0.4061 1.04044,-0.228 2.03907,0.4727 2.55435,1.4781 3.83658,-1.3755 2.86914,-2.7071 0.88622,-0.5689 1.79492,-1.4223 0.57031,-2.7226 1.4515,-2.6335 0.53786,-3.5053 -0.9082,-3.8379 -2.01941,0 -19.68638,0 -23.29883,0 z"
         transform="scale(0.26458333)" />
      <path
         id="path1031-7"
         style="fill:#de8787;fill-opacity:1;stroke:none;stroke-width:0.0727015px;stroke-linecap:butt;stroke-linejoin:miter;stroke-opacity:1"
         d="m 106.81429,454.5254 c -0.0421,0.005 -0.14398,0.16511 -0.18547,0.17011 -0.0762,0.009 -0.14818,0.02 -0.22212,0.0301 0.78392,0.87577 1.54615,1.44064 2.38527,3.1062 0.64202,-1.13172 1.42176,-2.20128 2.29019,-3.17416 -0.20144,-0.005 -0.3976,0.009 -0.58807,0.0498 -0.66171,0.66487 -1.34927,1.46384 -1.725,2.29525 -0.43846,-1.01672 -1.16857,-1.66951 -1.78242,-2.46734 -0.062,-0.01 -0.11284,-0.01 -0.17238,-0.01 z" />
      <path
         id="rect1386"
         style="fill:#8a826b;fill-opacity:1;stroke:none;stroke-width:8.75218"
         d="m 318.03125,1690.3418 v 53.6035 h 3.78711 v -53.6035 c -1.33227,0 -2.42513,0 -3.78711,0 z"
         transform="scale(0.26458333)" />
      <path
         id="rect1388"
         style="fill:#918a6f;fill-opacity:1;stroke:none;stroke-width:1.32292"
         d="m 81.858154,451.36092 v 3.80855 h 8.01967 c 0.13741,0 0.24804,-0.11063 0.24804,-0.24804 v -3.31247 c 0,-0.13741 -0.11063,-0.24804 -0.24804,-0.24804 z" />
      <path
         id="rect1390"
         style="fill:#918a6f;fill-opacity:1;stroke:none;stroke-width:5.00001"
         d="m 309.38477,1690.3418 v 9.1074 h 31.29882 c 0.51935,0 0.9375,-0.4181 0.9375,-0.9375 v -8.1699 c -9.94835,0 -20.08146,0 -32.23632,0 z"
         transform="scale(0.26458333)" />
      <path
         id="path1411"
         style="color:#000000;font-style:normal;font-variant:normal;font-weight:normal;font-stretch:normal;font-size:medium;line-height:normal;font-family:sans-serif;font-variant-ligatures:normal;font-variant-position:normal;font-variant-caps:normal;font-variant-numeric:normal;font-variant-alternates:normal;font-variant-east-asian:normal;font-feature-settings:normal;font-variation-settings:normal;text-indent:0;text-align:start;text-decoration:none;text-decoration-line:none;text-decoration-style:solid;text-decoration-color:#000000;letter-spacing:normal;word-spacing:normal;text-transform:none;writing-mode:lr-tb;direction:ltr;text-orientation:mixed;dominant-baseline:auto;baseline-shift:baseline;text-anchor:start;white-space:normal;shape-padding:0;shape-margin:0;inline-size:0;clip-rule:nonzero;display:inline;overflow:visible;visibility:visible;isolation:auto;mix-blend-mode:normal;color-interpolation:sRGB;color-interpolation-filters:linearRGB;solid-color:#000000;solid-opacity:1;vector-effect:none;fill:#6c6753;fill-opacity:1;fill-rule:nonzero;stroke:none;stroke-width:0.264583px;stroke-linecap:butt;stroke-linejoin:miter;stroke-miterlimit:4;stroke-dasharray:none;stroke-dashoffset:0;stroke-opacity:1;color-rendering:auto;image-rendering:auto;shape-rendering:auto;text-rendering:auto;enable-background:accumulate;stop-color:#000000"
         d="m 83.848214,447.29915 c -0.25563,0.0134 -0.49711,0.11065 -0.66559,0.13746 -0.16237,0.0258 -0.34526,0.019 -0.54106,0.047 -0.29874,0.0427 -0.55784,0.18031 -0.78341,0.35295 v 0.34726 c 0.24253,-0.21916 0.51423,-0.39496 0.82062,-0.43873 0.16412,-0.0235 0.34796,-0.0157 0.54467,-0.047 0.2837,-0.0451 0.60818,-0.17078 0.82424,-0.12092 0.0707,0.0163 0.14138,0.10859 0.23048,0.2403 0.0446,0.0659 0.0942,0.13819 0.16019,0.20102 0.0659,0.0628 0.15386,0.11717 0.262,0.12919 0.0714,0.008 0.1328,0.004 0.18759,-0.0155 0.0548,-0.0196 0.0967,-0.0562 0.12092,-0.0822 0.0485,-0.0519 0.0371,-0.0562 0.0935,-0.0703 -0.0246,0.006 0.003,0.0156 0.0842,0.002 0.22711,-0.0378 0.41065,-0.13187 0.57619,-0.14107 0.19645,-0.0109 0.38733,-0.0201 0.56844,0 -0.005,-5.3e-4 0.0225,0.0128 0.0837,0.0372 l 0.0139,0.006 0.0155,0.002 c 0.0507,0.007 0.1072,0.0195 0.17156,0.0253 0.36959,0.0336 0.71104,-0.0465 1.0294,-0.0465 v -0.26355 c -0.35914,0 -0.68942,0.0751 -1.00356,0.0465 -0.0443,-0.004 -0.0966,-0.013 -0.15244,-0.0212 -0.0226,-0.013 -0.0539,-0.0407 -0.12919,-0.0491 -0.2102,-0.0234 -0.41624,-0.0109 -0.61289,0 -0.2406,0.0134 -0.43455,0.11411 -0.60564,0.14263 0.0186,-0.003 -0.0176,-0.0192 -0.10336,0.002 -0.12723,0.0318 -0.19864,0.12254 -0.22272,0.14831 -0.012,0.0129 -0.0111,0.0101 -0.016,0.0119 -0.005,0.002 -0.0244,0.007 -0.0703,0.002 -0.0409,-0.005 -0.0706,-0.0202 -0.10904,-0.0568 -0.0385,-0.0366 -0.0798,-0.0943 -0.12299,-0.15813 -0.0863,-0.12758 -0.18536,-0.30247 -0.39067,-0.34985 -0.0861,-0.0199 -0.17317,-0.0246 -0.25838,-0.0202 z" />
      <path
         id="path1415"
         style="color:#000000;font-style:normal;font-variant:normal;font-weight:normal;font-stretch:normal;font-size:medium;line-height:normal;font-family:sans-serif;font-variant-ligatures:normal;font-variant-position:normal;font-variant-caps:normal;font-variant-numeric:normal;font-variant-alternates:normal;font-variant-east-asian:normal;font-feature-settings:normal;font-variation-settings:normal;text-indent:0;text-align:start;text-decoration:none;text-decoration-line:none;text-decoration-style:solid;text-decoration-color:#000000;letter-spacing:normal;word-spacing:normal;text-transform:none;writing-mode:lr-tb;direction:ltr;text-orientation:mixed;dominant-baseline:auto;baseline-shift:baseline;text-anchor:start;white-space:normal;shape-padding:0;shape-margin:0;inline-size:0;clip-rule:nonzero;display:inline;overflow:visible;visibility:visible;isolation:auto;mix-blend-mode:normal;color-interpolation:sRGB;color-interpolation-filters:linearRGB;solid-color:#000000;solid-opacity:1;vector-effect:none;fill:#6c6753;fill-opacity:1;fill-rule:nonzero;stroke:none;stroke-width:0.264583px;stroke-linecap:butt;stroke-linejoin:miter;stroke-miterlimit:4;stroke-dasharray:none;stroke-dashoffset:0;stroke-opacity:1;color-rendering:auto;image-rendering:auto;shape-rendering:auto;text-rendering:auto;enable-background:accumulate;stop-color:#000000"
         d="m 85.325124,452.99441 c -0.0848,0.005 -0.16543,0.0184 -0.23823,0.0475 -0.0703,0.0281 -0.12528,0.0838 -0.15244,0.13281 -0.0272,0.049 -0.0346,0.0831 -0.0429,0.1018 -0.008,0.0187 -0.0106,0.0246 -0.031,0.0388 -0.0204,0.0141 -0.0645,0.0348 -0.15038,0.0512 -0.0193,0.004 -0.14768,0.0125 -0.25631,0.006 -0.0543,-0.003 -0.10503,-0.0101 -0.14211,-0.0196 -0.0251,-0.006 -0.0408,-0.0159 -0.045,-0.0171 5.3e-4,-0.002 -0.02,-0.0577 -0.0413,-0.12712 -0.0111,-0.0362 -0.0221,-0.0753 -0.0563,-0.11937 -0.0343,-0.044 -0.11291,-0.0857 -0.1819,-0.078 -0.14354,0.016 -0.26877,0.053 -0.38292,0.0703 -0.56911,0.0862 -1.15934,0.11699 -1.74615,0.2253 v 0.27389 c 0.57935,-0.11084 1.18144,-0.1462 1.78542,-0.23771 0.12189,-0.0185 0.22627,-0.0469 0.32608,-0.0625 0.001,0.004 7.9e-4,0.002 0.002,0.006 0.0157,0.0513 0.0209,0.13713 0.0935,0.22427 0.054,0.0649 0.11752,0.0817 0.17983,0.0977 0.0623,0.016 0.12806,0.0254 0.19327,0.0295 0.13041,0.008 0.24537,0.002 0.3204,-0.0119 0.10899,-0.0207 0.18972,-0.0503 0.25218,-0.0935 0.0625,-0.0433 0.10069,-0.10284 0.12092,-0.14832 0.0202,-0.0455 0.0285,-0.0738 0.0331,-0.0822 0.005,-0.008 -0.003,-0.005 0.0196,-0.014 0.0571,-0.0229 0.2221,-0.0355 0.38654,-0.0253 0.16444,0.0102 0.33509,0.0367 0.43563,0.0568 0.15786,0.0316 0.27815,-0.0108 0.33228,0 0.0469,0.009 0.0366,0.0103 0.0739,0.0233 0.0373,0.0129 0.0842,0.0197 0.17984,0.0253 0.26616,0.0157 0.54166,0.004 0.80099,-0.0233 0.2043,-0.0215 0.27117,-0.047 0.43511,-0.047 v -0.26356 c -0.19043,0 -0.2747,0.0273 -0.4625,0.047 -0.24813,0.0261 -0.511,0.0378 -0.7581,0.0233 -0.0873,-0.005 -0.10214,-0.009 -0.10903,-0.0114 -0.007,-0.002 -0.0436,-0.0204 -0.10956,-0.0336 -0.15787,-0.0316 -0.27608,0.0108 -0.33021,0 -0.11385,-0.0228 -0.29065,-0.0493 -0.47077,-0.0605 -0.0901,-0.006 -0.17878,-0.01 -0.26355,-0.005 z" />
      <path
         id="rect1009-4"
         style="fill:#917c6f;fill-opacity:1;stroke:none;stroke-width:0.329667;stroke-linecap:round;stroke-linejoin:round;stroke-miterlimit:4;stroke-dasharray:none;stroke-opacity:1"
         d="m -70.871094,2010.2812 c -7.715225,0 -13.925781,6.2216 -13.925781,13.9493 0,0.038 0.0056,0.074 0.0059,0.1113 3.699299,0 118.87207,0 266.529295,0 149.24673,0 268.18567,0 269.39844,0 2.9e-4,-0.037 0.006,-0.074 0.006,-0.1113 0,-7.7277 -6.21251,-13.9493 -13.92774,-13.9493 z"
         transform="scale(0.26458333)" />
    </g>
  </g>
</svg>
