<?xml version="1.0" encoding="UTF-8" standalone="no"?>
<svg
   xmlns:dc="http://purl.org/dc/elements/1.1/"
   xmlns:cc="http://creativecommons.org/ns#"
   xmlns:rdf="http://www.w3.org/1999/02/22-rdf-syntax-ns#"
   xmlns:svg="http://www.w3.org/2000/svg"
   xmlns="http://www.w3.org/2000/svg"
   xmlns:xlink="http://www.w3.org/1999/xlink"
   xmlns:sodipodi="http://sodipodi.sourceforge.net/DTD/sodipodi-0.dtd"
   xmlns:inkscape="http://www.inkscape.org/namespaces/inkscape"
   inkscape:version="1.0 (4035a4fb49, 2020-05-01)"
   sodipodi:docname="reset-password.svg"
   id="svg8"
   version="1.1"
   viewBox="0 0 185.20833 209.02083"
   height="790"
   width="700">
  <defs
     id="defs2">
    <linearGradient
       inkscape:collect="always"
       id="linearGradient970">
      <stop
         style="stop-color:#c25d5d;stop-opacity:1"
         offset="0"
         id="stop966" />
      <stop
         style="stop-color:#cf7070;stop-opacity:1"
         offset="1"
         id="stop968" />
    </linearGradient>
    <linearGradient
       inkscape:collect="always"
       id="linearGradient956">
      <stop
         style="stop-color:#918a6f;stop-opacity:1;"
         offset="0"
         id="stop952" />
      <stop
         style="stop-color:#504d43;stop-opacity:1"
         offset="1"
         id="stop954" />
    </linearGradient>
    <linearGradient
       inkscape:collect="always"
       id="linearGradient948">
      <stop
         style="stop-color:#fff6d5;stop-opacity:1"
         offset="0"
         id="stop944" />
      <stop
         style="stop-color:#e3dedb;stop-opacity:1"
         offset="1"
         id="stop946" />
    </linearGradient>
    <linearGradient
       id="linearGradient1931"
       inkscape:collect="always">
      <stop
         id="stop1927"
         offset="0"
         style="stop-color:#4d4d4d;stop-opacity:1;" />
      <stop
         id="stop1929"
         offset="1"
         style="stop-color:#181818;stop-opacity:1" />
    </linearGradient>
    <linearGradient
       id="linearGradient1917"
       inkscape:collect="always">
      <stop
         id="stop1913"
         offset="0"
         style="stop-color:#232323;stop-opacity:1" />
      <stop
         id="stop1915"
         offset="1"
         style="stop-color:#4d4d4d;stop-opacity:1" />
    </linearGradient>
    <linearGradient
       id="linearGradient1829"
       inkscape:collect="always">
      <stop
         id="stop1825"
         offset="0"
         style="stop-color:#3771c8;stop-opacity:1" />
      <stop
         id="stop1827"
         offset="1"
         style="stop-color:#8d5fd3;stop-opacity:1" />
    </linearGradient>
    <linearGradient
       id="linearGradient1706"
       inkscape:collect="always">
      <stop
         id="stop1702"
         offset="0"
         style="stop-color:#d3b59a;stop-opacity:1;" />
      <stop
         id="stop1704"
         offset="1"
         style="stop-color:#cca88b;stop-opacity:1" />
    </linearGradient>
    <linearGradient
       id="linearGradient1690"
       inkscape:collect="always">
      <stop
         id="stop1686"
         offset="0"
         style="stop-color:#d3b59a;stop-opacity:1;" />
      <stop
         id="stop1688"
         offset="1"
         style="stop-color:#c9a384;stop-opacity:1" />
    </linearGradient>
    <linearGradient
       id="linearGradient1628"
       inkscape:collect="always">
      <stop
         id="stop1624"
         offset="0"
         style="stop-color:#346593;stop-opacity:1" />
      <stop
         id="stop1626"
         offset="1"
         style="stop-color:#2c89a0;stop-opacity:1" />
    </linearGradient>
    <linearGradient
       id="linearGradient1587"
       inkscape:collect="always">
      <stop
         id="stop1583"
         offset="0"
         style="stop-color:#b84f4f;stop-opacity:1" />
      <stop
         id="stop1585"
         offset="1"
         style="stop-color:#cf7070;stop-opacity:1" />
    </linearGradient>
    <linearGradient
       id="linearGradient1571"
       inkscape:collect="always">
      <stop
         id="stop1567"
         offset="0"
         style="stop-color:#6c5d53;stop-opacity:1;" />
      <stop
         id="stop1569"
         offset="1"
         style="stop-color:#483737;stop-opacity:1" />
    </linearGradient>
    <linearGradient
       inkscape:collect="always"
       id="linearGradient967">
      <stop
         style="stop-color:#6879dd;stop-opacity:1"
         offset="0"
         id="stop963" />
      <stop
         style="stop-color:#b7e5ff;stop-opacity:1"
         offset="1"
         id="stop965" />
    </linearGradient>
    <inkscape:perspective
       id="perspective1042"
       inkscape:persp3d-origin="105 : 11.020831 : 1"
       inkscape:vp_z="210 : 60.520828 : 1"
       inkscape:vp_y="0 : 999.99995 : 0"
       inkscape:vp_x="0 : 60.520828 : 1"
       sodipodi:type="inkscape:persp3d" />
    <linearGradient
       id="linearGradient1259"
       inkscape:collect="always">
      <stop
         id="stop1255"
         offset="0"
         style="stop-color:#9a5f39;stop-opacity:1" />
      <stop
         id="stop1257"
         offset="1"
         style="stop-color:#834c2a;stop-opacity:1" />
    </linearGradient>
    <linearGradient
       gradientUnits="userSpaceOnUse"
       y2="-53.200153"
       x2="-718.60834"
       y1="-61.307735"
       x1="-718.60834"
       id="linearGradient1261"
       xlink:href="#linearGradient1259"
       inkscape:collect="always"
       gradientTransform="matrix(0.56110604,0,0,0.56110604,-325.86883,-101.04274)" />
    <radialGradient
       inkscape:collect="always"
       xlink:href="#linearGradient967"
       id="radialGradient971"
       cx="97.986862"
       cy="87.361275"
       fx="97.986862"
       fy="87.361275"
       r="87.221466"
       gradientTransform="matrix(1,0,0,1.001603,-5.3826955,17.009102)"
       gradientUnits="userSpaceOnUse" />
    <linearGradient
       gradientTransform="matrix(1.3978994,0,0,1.3978994,-87.936238,-53.026818)"
       gradientUnits="userSpaceOnUse"
       y2="83.978424"
       x2="133.94949"
       y1="89.255417"
       x1="139.69086"
       id="linearGradient1573"
       xlink:href="#linearGradient1571"
       inkscape:collect="always" />
    <linearGradient
       gradientTransform="matrix(1.3978994,0,0,1.3978994,-87.936238,-54.085152)"
       gradientUnits="userSpaceOnUse"
       y2="108.54819"
       x2="151.29727"
       y1="117.22855"
       x1="153.05347"
       id="linearGradient1589"
       xlink:href="#linearGradient1587"
       inkscape:collect="always" />
    <linearGradient
       gradientTransform="matrix(0.36986084,0,0,0.36986084,-87.936236,-54.08515)"
       gradientUnits="userSpaceOnUse"
       y2="537.12964"
       x2="529.02197"
       y1="611.37583"
       x1="495.12532"
       id="linearGradient1630"
       xlink:href="#linearGradient1628"
       inkscape:collect="always" />
    <linearGradient
       gradientTransform="matrix(0.08684926,0,0,0.08698848,143.087,77.295488)"
       inkscape:collect="always"
       xlink:href="#linearGradient892-6"
       id="linearGradient894-9"
       x1="-625.30444"
       y1="647.2453"
       x2="-625.30444"
       y2="812.16785"
       gradientUnits="userSpaceOnUse" />
    <linearGradient
       inkscape:collect="always"
       id="linearGradient892-6">
      <stop
         style="stop-color:#6b4e3b;stop-opacity:1"
         offset="0"
         id="stop888-9" />
      <stop
         style="stop-color:#917c6f;stop-opacity:1"
         offset="1"
         id="stop890-6" />
    </linearGradient>
    <linearGradient
       gradientTransform="matrix(1.1813687,0,0,1.1813687,-24.844492,-23.940544)"
       gradientUnits="userSpaceOnUse"
       y2="92.357597"
       x2="112.25845"
       y1="94.990807"
       x1="112.35758"
       id="linearGradient1692"
       xlink:href="#linearGradient1690"
       inkscape:collect="always" />
    <linearGradient
       gradientTransform="matrix(1.1813687,0,0,1.1813687,-24.844492,-23.940544)"
       gradientUnits="userSpaceOnUse"
       y2="129.55751"
       x2="129.23122"
       y1="123.51585"
       x1="138.47502"
       id="linearGradient1708"
       xlink:href="#linearGradient1706"
       inkscape:collect="always" />
    <linearGradient
       gradientTransform="matrix(0.09641485,0,0,0.09641485,28.146216,59.101826)"
       inkscape:collect="always"
       xlink:href="#linearGradient1260"
       id="linearGradient1262"
       x1="379.11188"
       y1="643.93298"
       x2="379.11188"
       y2="579.2832"
       gradientUnits="userSpaceOnUse" />
    <linearGradient
       inkscape:collect="always"
       id="linearGradient1260">
      <stop
         style="stop-color:#4d4d4d;stop-opacity:1"
         offset="0"
         id="stop1256" />
      <stop
         style="stop-color:#000000;stop-opacity:1"
         offset="1"
         id="stop1258" />
    </linearGradient>
    <linearGradient
       gradientUnits="userSpaceOnUse"
       y2="364.75824"
       x2="291.18555"
       y1="401.54395"
       x1="191.21484"
       id="linearGradient1831"
       xlink:href="#linearGradient1829"
       inkscape:collect="always" />
    <linearGradient
       gradientTransform="matrix(-0.17644272,0,0,0.17752369,177.97628,41.269222)"
       inkscape:collect="always"
       xlink:href="#linearGradient1036"
       id="linearGradient1038"
       x1="282.46301"
       y1="382.27353"
       x2="241.65387"
       y2="379.97623"
       gradientUnits="userSpaceOnUse" />
    <linearGradient
       inkscape:collect="always"
       id="linearGradient1036">
      <stop
         style="stop-color:#fff6d5;stop-opacity:0.14202899"
         offset="0"
         id="stop1032" />
      <stop
         style="stop-color:#89c1c3;stop-opacity:0;"
         offset="1"
         id="stop1034" />
    </linearGradient>
    <linearGradient
       inkscape:collect="always"
       xlink:href="#linearGradient1153"
       id="linearGradient1155"
       x1="-606.63116"
       y1="37.859936"
       x2="-597.88629"
       y2="48.788776"
       gradientUnits="userSpaceOnUse"
       gradientTransform="matrix(-0.27246187,0,0,0.27457053,-26.071394,88.076176)" />
    <linearGradient
       inkscape:collect="always"
       id="linearGradient1153">
      <stop
         style="stop-color:#784421;stop-opacity:1"
         offset="0"
         id="stop1149" />
      <stop
         style="stop-color:#b5754e;stop-opacity:1"
         offset="1"
         id="stop1151" />
    </linearGradient>
    <linearGradient
       gradientUnits="userSpaceOnUse"
       y2="470.32714"
       x2="443.92773"
       y1="470.32714"
       x1="318.21484"
       id="linearGradient1919"
       xlink:href="#linearGradient1917"
       inkscape:collect="always" />
    <linearGradient
       gradientUnits="userSpaceOnUse"
       y2="467.56281"
       x2="465.17459"
       y1="463.77472"
       x1="477.42407"
       id="linearGradient1933"
       xlink:href="#linearGradient1931"
       inkscape:collect="always" />
    <radialGradient
       inkscape:collect="always"
       xlink:href="#linearGradient948"
       id="radialGradient950"
       cx="32.222469"
       cy="45.640625"
       fx="32.222469"
       fy="45.640625"
       r="12.789523"
       gradientUnits="userSpaceOnUse" />
    <linearGradient
       inkscape:collect="always"
       xlink:href="#linearGradient956"
       id="linearGradient958"
       x1="42.6763"
       y1="55.796867"
       x2="22.704082"
       y2="34.148037"
       gradientUnits="userSpaceOnUse" />
    <filter
       inkscape:collect="always"
       style="color-interpolation-filters:sRGB"
       id="filter1118"
       x="-0.23600756"
       width="1.4720151"
       y="-0.23600756"
       height="1.4720151">
      <feGaussianBlur
         inkscape:collect="always"
         stdDeviation="0.28573554"
         id="feGaussianBlur1120" />
    </filter>
    <filter
       inkscape:collect="always"
       style="color-interpolation-filters:sRGB"
       id="filter1232"
       x="-0.11255881"
       width="1.2251176"
       y="-0.055748551"
       height="1.1114971">
      <feGaussianBlur
         inkscape:collect="always"
         stdDeviation="0.2582515"
         id="feGaussianBlur1234" />
    </filter>
    <filter
       inkscape:collect="always"
       style="color-interpolation-filters:sRGB"
       id="filter1302"
       x="-0.1612722"
       width="1.3225444"
       y="-0.17482024"
       height="1.3496405">
      <feGaussianBlur
         inkscape:collect="always"
         stdDeviation="0.35964906"
         id="feGaussianBlur1304" />
    </filter>
    <filter
       inkscape:collect="always"
       style="color-interpolation-filters:sRGB"
       id="filter1388"
       x="-0.06452426"
       width="1.1290485"
       y="-0.06452426"
       height="1.1290485">
      <feGaussianBlur
         inkscape:collect="always"
         stdDeviation="0.76722573"
         id="feGaussianBlur1390" />
    </filter>
    <linearGradient
       y2="129.55751"
       x2="129.23122"
       y1="123.51585"
       x1="138.47502"
       gradientTransform="matrix(-1.178626,0.08045398,0.08045398,1.178626,231.93332,-33.294398)"
       gradientUnits="userSpaceOnUse"
       id="linearGradient961"
       xlink:href="#linearGradient1706"
       inkscape:collect="always" />
    <linearGradient
       y2="111.83107"
       x2="144.38522"
       y1="113.62763"
       x1="152.50037"
       gradientTransform="matrix(-5.2711332,0.35981186,0.35981186,5.2711332,1106.7427,-255.74444)"
       gradientUnits="userSpaceOnUse"
       id="linearGradient963"
       xlink:href="#linearGradient970"
       inkscape:collect="always" />
  </defs>
  <sodipodi:namedview
     units="px"
     inkscape:window-maximized="1"
     inkscape:window-y="-11"
     inkscape:window-x="-11"
     inkscape:window-height="1526"
     inkscape:window-width="2880"
     showgrid="false"
     inkscape:document-rotation="0"
     inkscape:current-layer="layer1"
     inkscape:document-units="mm"
     inkscape:cy="363.80803"
     inkscape:cx="15.866972"
     inkscape:zoom="0.9899495"
     inkscape:pageshadow="2"
     inkscape:pageopacity="0.0"
     borderopacity="1.0"
     bordercolor="#666666"
     pagecolor="#ffffff"
     id="base" />
  <metadata
     id="metadata5">
    <rdf:RDF>
      <cc:Work
         rdf:about="">
        <dc:format>image/svg+xml</dc:format>
        <dc:type
           rdf:resource="http://purl.org/dc/dcmitype/StillImage" />
        <dc:title />
      </cc:Work>
    </rdf:RDF>
  </metadata>
  <g
     id="layer1"
     inkscape:groupmode="layer"
     inkscape:label="Layer 1">
    <ellipse
       cy="104.51041"
       cx="92.604164"
       id="path990"
       style="fill:url(#radialGradient971);fill-opacity:1;stroke-width:1.04273;stroke-miterlimit:4;stroke-dasharray:none"
       rx="87.221466"
       ry="87.361282" />
    <circle
       r="14.2686"
       cy="45.640625"
       cx="32.222469"
       id="circle1306"
       style="fill:#333333;fill-opacity:1;stroke:none;stroke-width:1.04587;stroke-opacity:1;filter:url(#filter1388)" />
    <path
       sodipodi:nodetypes="cccccc"
       d="m 121.94211,90.064697 c -0.69686,3.845291 -1.04732,9.995703 -0.0173,13.786653 2.48222,1.33356 6.24844,6.88366 14.29095,13.24426 1.76287,-1.79857 3.60836,-3.28729 5.40852,-4.19417 -4.33547,-7.66045 -14.2243,-21.243724 -19.68212,-22.836743 z"
       style="fill:url(#linearGradient1589);fill-opacity:1;stroke:none;stroke-width:0.36986px;stroke-linecap:butt;stroke-linejoin:miter;stroke-opacity:1"
       id="path1019" />
    <path
       d="m 111.36857,80.570404 c -2.49359,3.90779 -5.21444,4.426495 -8.06035,1.556017 0.0384,3.039441 -0.75432,5.78062 -4.81037,7.350265 5.78482,3.216636 11.60468,4.204154 17.51351,-0.513617 -3.25311,-0.117982 -3.85348,-4.683219 -4.64279,-8.392665 z"
       style="fill:url(#linearGradient1692);fill-opacity:1;stroke:none;stroke-width:0.36986px;stroke-linecap:butt;stroke-linejoin:miter;stroke-opacity:1"
       id="path976" />
    <path
       transform="scale(0.26458333)"
       d="M 438.46875 336.23828 C 416.13616 354.06923 394.13928 350.33705 372.27539 338.17969 L 352.44727 341.83008 C 332.27721 349.24177 298.48365 403.00619 284.10742 433.00781 C 291.12881 435.96405 298.47174 441.10346 305.58203 447.43164 C 333.86493 421.74624 346.67568 400.11214 355.67188 394.07422 C 358.02778 429.29822 360.60401 472.41182 359.86328 512.68555 C 398.73619 524.01283 432.36327 519.71494 461.86328 508.64062 C 461.22307 456.67465 460.57595 401.86091 460.88281 340.29883 L 438.46875 336.23828 z "
       style="fill:url(#linearGradient963);fill-opacity:1;stroke:none;stroke-width:1.3979px;stroke-linecap:butt;stroke-linejoin:miter;stroke-opacity:1"
       id="path957" />
    <path
       d="m 122.2016,134.57786 c -4.30359,1.61557 -8.94107,2.68086 -13.95823,2.81374 -4.08222,0.10814 -8.414867,-0.39963 -13.029061,-1.74417 -0.0036,0.76646 -0.0027,1.54656 -0.0054,2.3162 h 13.034561 0.12881 13.87031 c -0.014,-1.13139 -0.0268,-2.24358 -0.0409,-3.38516 z"
       style="fill:url(#linearGradient1630);fill-opacity:1;stroke:none;stroke-width:0.369861px;stroke-linecap:butt;stroke-linejoin:miter;stroke-opacity:1"
       id="path1010" />
    <path
       sodipodi:nodetypes="cccccccsssscccc"
       d="m 141.62422,112.90144 c -5.30152,2.67077 -10.99705,10.38161 -13.799,16.2132 -1.03098,1.16365 -3.60792,1.80195 -5.65697,2.64826 0.0109,0.93139 0.0218,1.89087 0.0334,2.81513 -0.0765,1.63422 -3.68123,5.35594 -2.82048,5.78931 2.40231,-1.63936 3.10309,-4.5254 3.60073,-4.42857 0.8167,0.18843 -3.69139,6.05295 -3.17489,6.38474 0.45438,0.90888 3.78875,-5.30574 4.19593,-5.05107 0.4431,0.27711 -2.77961,4.7597 -2.68505,4.9908 0.69864,1.70744 3.35055,-4.09241 3.54782,-4.17098 0.15649,-0.0624 -1.29784,2.89761 -1.15171,2.98417 0.6139,0.36353 3.66718,-4.44202 5.38097,-6.66535 4.7605,-4.10599 12.88332,-12.42854 14.66191,-16.58875 0.0521,-0.6744 -0.76428,-2.50337 -2.13247,-4.92089 z"
       style="fill:url(#linearGradient1708);fill-opacity:1;stroke:none;stroke-width:0.36986px;stroke-linecap:butt;stroke-linejoin:miter;stroke-opacity:1"
       id="path1021" />
    <path
       id="path959"
       style="fill:url(#linearGradient961);fill-opacity:1;stroke:none;stroke-width:0.36986px;stroke-linecap:butt;stroke-linejoin:miter;stroke-opacity:1"
       d="m 75.170352,114.56679 c 5.471098,2.30352 11.678531,9.60858 14.871121,15.23582 1.107833,1.09073 3.72226,1.55205 5.824189,2.25685 0.05255,0.92997 0.107023,1.88797 0.158394,2.81087 0.187617,1.62522 4.037434,5.09281 3.208198,5.58379 -2.508377,-1.47195 -3.404076,-4.30357 -3.893967,-4.17307 -0.801971,0.24361 4.09504,5.78751 3.602335,6.1537 -0.391428,0.93771 -4.141287,-5.0354 -4.530178,-4.75359 -0.4232,0.30664 3.097303,4.55935 3.018701,4.79635 -0.580737,1.75106 -3.621474,-3.85472 -3.823636,-3.91968 -0.160377,-0.0516 1.49216,2.8025 1.352265,2.89881 -0.587718,0.40449 -3.961178,-4.18196 -5.822403,-6.28342 -5.029076,-3.77225 -13.699822,-11.5223 -15.757603,-15.55172 -0.09791,-0.66929 0.59202,-2.54961 1.792395,-5.0547 z"
       sodipodi:nodetypes="cccccccsssscccc" />
    <path
       id="rect1011-9"
       style="fill:url(#linearGradient894-9);fill-opacity:1;stroke:none;stroke-width:0.0869188;stroke-linecap:round;stroke-linejoin:round;stroke-miterlimit:4;stroke-dasharray:none;stroke-opacity:1"
       d="m 29.824525,133.0425 v 75.97833 H 155.38381 V 133.0425 h -7.86003 v 4.00572 H 37.684565 v -4.00572 z" />
    <path
       id="rect1009-4"
       style="fill:#917c6f;fill-opacity:1;stroke:none;stroke-width:0.0872244;stroke-linecap:round;stroke-linejoin:round;stroke-miterlimit:4;stroke-dasharray:none;stroke-opacity:1"
       d="M 25.388605,125.66125 H 159.81973 c 2.04132,0 3.6847,1.64601 3.6847,3.69061 0,2.0446 -1.64338,3.69061 -3.6847,3.69061 H 25.388605 c -2.04133,0 -3.6847,-1.64601 -3.6847,-3.69061 0,-2.0446 1.64337,-3.69061 3.6847,-3.69061 z" />
    <path
       id="rect966"
       style="fill:url(#linearGradient1262);fill-opacity:1;stroke:none;stroke-width:0.482075"
       d="m 58.722154,116.16586 v 8.38565 h 10.261401 v -8.38565 z" />
    <rect
       style="fill:#282828;fill-opacity:1;stroke:none;stroke-width:0.482075"
       id="rect968"
       width="22.244282"
       height="1.101884"
       x="52.730751"
       y="124.55155"
       ry="0.090388909" />
    <path
       transform="scale(0.26458333)"
       d="M 290.57812 420.35352 C 288.14878 424.86322 285.96164 429.13827 284.10742 433.00781 C 291.12881 435.96405 298.47174 441.10346 305.58203 447.43164 C 307.6747 445.53116 309.65795 443.66199 311.58594 441.81055 L 290.57812 420.35352 z "
       style="fill:#782121;stroke:none;stroke-width:0.999999px;stroke-linecap:butt;stroke-linejoin:miter;stroke-opacity:1;fill-opacity:1"
       id="path984" />
    <rect
       style="fill:#4d4d4d;stroke:none;stroke-width:0.27366"
       id="rect962"
       width="48.320915"
       height="29.302153"
       x="39.692429"
       y="86.863701"
       ry="0.56781894" />
    <rect
       ry="0.047140844"
       y="87.820473"
       x="40.653862"
       height="26.920862"
       width="45.99715"
       id="rect964"
       style="fill:#f2f2f2;stroke:none;stroke-width:0.255918" />
    <path
       transform="scale(0.26458333)"
       d="M 235.14844 361.83789 C 233.05105 361.83789 231.36328 363.52761 231.36328 365.625 C 231.36328 367.72239 233.05105 369.41016 235.14844 369.41016 L 271.32031 369.41016 C 273.4177 369.41016 275.10742 367.72239 275.10742 365.625 C 275.10742 363.52761 273.4177 361.83789 271.32031 361.83789 L 235.14844 361.83789 z M 195.05078 365.76562 C 190.22402 365.76562 186.33789 369.6498 186.33789 374.47656 L 186.33789 379.37109 L 185.74805 379.37109 C 185.31441 379.37109 184.96484 379.72067 184.96484 380.1543 L 184.96484 399.04102 C 184.96484 399.47457 185.31441 399.82227 185.74805 399.82227 L 204.35352 399.82227 C 204.78716 399.82227 205.13672 399.47457 205.13672 399.04102 L 205.13672 380.1543 C 205.13672 379.72067 204.78714 379.37109 204.35352 379.37109 L 203.76367 379.37109 L 203.76367 374.47656 C 203.76367 369.6498 199.87754 365.76563 195.05078 365.76562 z M 195.05078 367.84766 C 198.58341 367.84766 201.42773 370.69198 201.42773 374.22461 L 201.42773 379.37109 L 188.67383 379.37109 L 188.67383 374.22461 C 188.67383 370.69198 191.51815 367.84766 195.05078 367.84766 z M 233.86328 372.92969 C 232.47828 372.92968 231.36328 374.04468 231.36328 375.42969 C 231.36328 376.81469 232.47828 377.92969 233.86328 377.92969 L 284.2207 377.92969 C 285.6057 377.92969 286.7207 376.81469 286.7207 375.42969 C 286.7207 374.04468 285.6057 372.92969 284.2207 372.92969 L 233.86328 372.92969 z M 231.54297 384.41016 C 231.44429 384.41016 231.36328 384.48924 231.36328 384.58789 L 231.36328 395.48047 C 231.36328 395.57911 231.44429 395.66016 231.54297 395.66016 L 296.00781 395.66016 C 296.1065 395.66016 296.18555 395.57911 296.18555 395.48047 L 296.18555 384.58789 C 296.18555 384.48924 296.10657 384.41016 296.00781 384.41016 L 231.54297 384.41016 z M 195.00586 384.70117 A 2.3044105 2.3044105 0 0 1 195.05078 384.70117 A 2.3044105 2.3044105 0 0 1 197.35547 387.00586 A 2.3044105 2.3044105 0 0 1 195.99609 389.10742 L 196.60742 390.62695 L 198.16406 394.49414 L 195.05078 394.49414 L 191.9375 394.49414 L 193.49414 390.62695 L 194.10547 389.10742 A 2.3044105 2.3044105 0 0 1 192.74609 387.00586 A 2.3044105 2.3044105 0 0 1 195.00586 384.70117 z M 236.62695 388.04688 A 1.9887378 1.9887378 0 0 1 236.66797 388.04688 A 1.9887378 1.9887378 0 0 1 238.65625 390.03516 A 1.9887378 1.9887378 0 0 1 236.66797 392.02344 A 1.9887378 1.9887378 0 0 1 234.67969 390.03516 A 1.9887378 1.9887378 0 0 1 236.62695 388.04688 z M 242.4668 388.04688 A 1.9887378 1.9887378 0 0 1 242.50781 388.04688 A 1.9887378 1.9887378 0 0 1 244.49609 390.03516 A 1.9887378 1.9887378 0 0 1 242.50781 392.02344 A 1.9887378 1.9887378 0 0 1 240.51953 390.03516 A 1.9887378 1.9887378 0 0 1 242.4668 388.04688 z M 248.30664 388.04688 A 1.9887378 1.9887378 0 0 1 248.34766 388.04688 A 1.9887378 1.9887378 0 0 1 250.33594 390.03516 A 1.9887378 1.9887378 0 0 1 248.34766 392.02344 A 1.9887378 1.9887378 0 0 1 246.35938 390.03516 A 1.9887378 1.9887378 0 0 1 248.30664 388.04688 z M 254.14648 388.04688 A 1.9887378 1.9887378 0 0 1 254.1875 388.04688 A 1.9887378 1.9887378 0 0 1 256.17578 390.03516 A 1.9887378 1.9887378 0 0 1 254.1875 392.02344 A 1.9887378 1.9887378 0 0 1 252.19922 390.03516 A 1.9887378 1.9887378 0 0 1 254.14648 388.04688 z M 259.98633 388.04688 A 1.9887378 1.9887378 0 0 1 260.02734 388.04688 A 1.9887378 1.9887378 0 0 1 262.01562 390.03516 A 1.9887378 1.9887378 0 0 1 260.02734 392.02344 A 1.9887378 1.9887378 0 0 1 258.03906 390.03516 A 1.9887378 1.9887378 0 0 1 259.98633 388.04688 z M 274.90039 398.75 C 273.51539 398.75 272.40039 399.86499 272.40039 401.25 C 272.40039 402.63501 273.51539 403.75 274.90039 403.75 L 293.68555 403.75 C 295.07055 403.75 296.18555 402.63501 296.18555 401.25 C 296.18555 399.86499 295.07055 398.75 293.68555 398.75 L 274.90039 398.75 z "
       style="fill:url(#linearGradient1831);fill-opacity:1;stroke:none;stroke-width:4.1458;stroke-opacity:1"
       id="rect1738" />
    <ellipse
       style="fill:#ffd42a;fill-opacity:1;stroke:none;stroke-width:0.0707917;stroke-linecap:round;stroke-miterlimit:4;stroke-dasharray:none;stroke-opacity:1"
       id="path968"
       cx="-169.99651"
       cy="-8.3084221"
       rx="6.2070856"
       ry="0.81664699"
       transform="matrix(-0.7636163,-0.64567031,-0.63985423,0.7684963,0,0)" />
    <path
       id="path914"
       style="fill:url(#linearGradient1155);fill-opacity:1;stroke:none;stroke-width:0.0728951;stroke-linecap:round;stroke-miterlimit:4;stroke-dasharray:none;stroke-opacity:1"
       d="m 139.21247,98.471399 c 2.61302,2.209501 2.91008,6.191361 0.66406,8.901091 0.2387,-0.38123 -1.64109,-2.43789 -4.22574,-4.62334 -2.58348,-2.18444 -4.91921,-3.692611 -5.25188,-3.391103 2.25801,-2.699396 6.20062,-3.096018 8.81356,-0.886648 z"
       sodipodi:nodetypes="ccscc" />
    <ellipse
       ry="0.62044072"
       rx="4.7157817"
       cy="-8.3084221"
       cx="-169.99651"
       id="ellipse970"
       style="fill:#fff6d5;fill-opacity:1;stroke:none;stroke-width:0.0537832;stroke-linecap:round;stroke-miterlimit:4;stroke-dasharray:none;stroke-opacity:1"
       transform="matrix(-0.7636163,-0.64567031,-0.63985423,0.7684963,0,0)" />
    <path
       id="rect974"
       style="fill:#87502c;fill-opacity:1;stroke:none;stroke-width:0.0703292;stroke-linecap:round;stroke-miterlimit:4;stroke-dasharray:none;stroke-opacity:1"
       d="m 141.49775,97.197704 c 0.40351,0.341187 0.4558,0.943316 0.11724,1.349956 l -1.14962,1.380739 c -0.33027,-0.537093 -0.74817,-1.030219 -1.2529,-1.457 -0.50472,-0.426768 -1.05916,-0.755932 -1.64138,-0.990418 l 1.14953,-1.380632 c 0.33857,-0.40664 0.93607,-0.459336 1.33958,-0.118149 z" />
    <path
       id="rect903"
       style="fill:#502d16;fill-opacity:1;stroke:none;stroke-width:0.0610018;stroke-miterlimit:4;stroke-dasharray:none;stroke-opacity:1"
       d="m 152.5372,123.01886 a 1.7036441,1.1044569 0 0 1 1.69352,0.98423 h 2.87479 c 0.45689,0 0.82475,0.37071 0.82475,0.83113 0,0.46041 -0.36786,0.83101 -0.82475,0.83101 h -9.13663 c -0.45688,0 -0.82475,-0.3706 -0.82475,-0.83101 0,-0.46042 0.36787,-0.83113 0.82475,-0.83113 h 2.8748 a 1.7036441,1.1044569 0 0 1 1.69352,-0.98423 z" />
    <path
       id="path1038"
       style="color:#000000;font-style:normal;font-variant:normal;font-weight:normal;font-stretch:normal;font-size:medium;line-height:normal;font-family:sans-serif;font-variant-ligatures:normal;font-variant-position:normal;font-variant-caps:normal;font-variant-numeric:normal;font-variant-alternates:normal;font-variant-east-asian:normal;font-feature-settings:normal;font-variation-settings:normal;text-indent:0;text-align:start;text-decoration:none;text-decoration-line:none;text-decoration-style:solid;text-decoration-color:#000000;letter-spacing:normal;word-spacing:normal;text-transform:none;writing-mode:lr-tb;direction:ltr;text-orientation:mixed;dominant-baseline:auto;baseline-shift:baseline;text-anchor:start;white-space:normal;shape-padding:0;shape-margin:0;inline-size:0;clip-rule:nonzero;display:inline;overflow:visible;visibility:visible;isolation:auto;mix-blend-mode:normal;color-interpolation:sRGB;color-interpolation-filters:linearRGB;solid-color:#000000;solid-opacity:1;vector-effect:none;fill:#784421;fill-opacity:1;fill-rule:nonzero;stroke:none;stroke-width:0.0610018;stroke-linecap:round;stroke-linejoin:miter;stroke-miterlimit:4;stroke-dasharray:none;stroke-dashoffset:0;stroke-opacity:1;color-rendering:auto;image-rendering:auto;shape-rendering:auto;text-rendering:auto;enable-background:accumulate;stop-color:#000000"
       d="m 141.53435,98.644418 c 6.12096,6.373002 11.46836,13.472962 11.55449,24.433892 a 1.7036441,1.1044569 0 0 0 -0.55164,-0.0594 1.7036441,1.1044569 0 0 0 -0.6631,0.0872 c -0.0722,-10.53354 -5.10821,-17.24607 -11.12498,-23.518436 z" />
    <path
       transform="scale(0.26458333)"
       d="M 318.39258 465.71484 C 318.29386 465.71484 318.21484 465.79393 318.21484 465.89258 L 318.21484 474.93945 L 443.92773 474.93945 L 443.92773 465.89258 C 443.92773 465.79393 443.84865 465.71484 443.75 465.71484 L 318.39258 465.71484 z "
       style="fill:url(#linearGradient1919);fill-opacity:1;stroke:none;stroke-width:5.00001;stroke-opacity:1"
       id="rect1907" />
    <path
       transform="scale(0.26458333)"
       d="M 474.45508 459.93359 A 13.573925 13.573925 0 0 0 460.88281 473.50586 A 13.573925 13.573925 0 0 0 460.95898 474.93945 L 487.95312 474.93945 A 13.573925 13.573925 0 0 0 488.0293 473.50586 A 13.573925 13.573925 0 0 0 474.45508 459.93359 z "
       style="fill:url(#linearGradient1933);fill-opacity:1;stroke:none;stroke-width:5.00001;stroke-opacity:1"
       id="path1921" />
    <path
       id="path1022"
       style="fill:url(#linearGradient1038);fill-opacity:1;stroke:none;stroke-width:0.176982px;stroke-linecap:butt;stroke-linejoin:miter;stroke-opacity:1"
       d="m 130.39877,99.357953 3.5e-4,3.55e-4 a 6.2070885,0.81662302 40.223613 0 0 -0.0107,0.01074 6.2070885,0.81662302 40.223613 0 0 4.2174,4.635372 6.2070885,0.81662302 40.223613 0 0 5.26226,3.37989 6.2070885,0.81662302 40.223613 0 0 0.008,-0.0104 l -7.37199,18.20831 H 92.035271 Z" />
    <circle
       r="14.2686"
       cy="45.640625"
       cx="32.222469"
       id="path1954"
       style="fill:#282828;fill-opacity:1;stroke:none;stroke-width:1.04587;stroke-opacity:1" />
    <circle
       style="fill:url(#linearGradient958);fill-opacity:1;stroke:none;stroke-width:1.04587;stroke-opacity:1"
       id="circle1956"
       cx="32.222469"
       cy="45.640625"
       r="14.2686" />
    <circle
       r="12.789523"
       cy="45.640625"
       cx="32.222469"
       id="circle936"
       style="fill:url(#radialGradient950);fill-opacity:1;stroke:none;stroke-width:0.937457;stroke-opacity:1" />
    <rect
       style="fill:#918a6f;fill-opacity:1;stroke-width:1.17232"
       id="rect938"
       width="1.4174106"
       height="11.43378"
       x="46.090458"
       y="19.686111"
       ry="0.053060818"
       inkscape:transform-center-y="-5.28017"
       transform="rotate(21.663263)"
       inkscape:transform-center-x="-2.0973135" />
    <rect
       ry="0.027407447"
       y="47.950821"
       x="-13.864854"
       height="5.9058781"
       width="1.4174106"
       id="rect940"
       style="fill:#918a6f;fill-opacity:1;stroke-width:0.842546"
       inkscape:transform-center-y="-1.9471401"
       transform="rotate(-48.746574)"
       inkscape:transform-center-x="2.220019" />
    <circle
       r="1.4528461"
       cy="45.640625"
       cx="32.222469"
       id="circle960"
       style="fill:#6c6753;fill-opacity:1;stroke-width:1.84908;filter:url(#filter1118)" />
    <rect
       inkscape:transform-center-x="-2.0973135"
       transform="rotate(21.663263)"
       inkscape:transform-center-y="-5.28017"
       ry="0.053060818"
       y="19.686111"
       x="46.090458"
       height="11.43378"
       width="1.4174106"
       id="rect1122"
       style="fill:#918a6f;fill-opacity:1;stroke-width:1.17232;filter:url(#filter1232)" />
    <rect
       inkscape:transform-center-x="2.220019"
       transform="rotate(-48.746574)"
       inkscape:transform-center-y="-1.9471401"
       style="fill:#918a6f;fill-opacity:1;stroke-width:0.842546;filter:url(#filter1302)"
       id="rect1236"
       width="1.4174106"
       height="5.9058781"
       x="-13.864854"
       y="47.950821"
       ry="0.027407447" />
    <circle
       style="fill:#918a6f;fill-opacity:1;stroke-width:1.84908"
       id="path942"
       cx="32.222469"
       cy="45.640625"
       r="1.4528461" />
    <path
       transform="scale(0.26458333)"
       d="M 533.39648 423.49805 C 526.68392 426.51456 519.31613 431.06699 511.91602 440.20312 C 512.88584 440.99058 513.8273 441.77179 514.83203 442.56641 C 521.49485 435.76866 528.46968 430.14242 535.27344 426.71484 C 534.69295 425.68917 534.02797 424.5769 533.39648 423.49805 z "
       style="fill:#782121;stroke:none;stroke-width:0.999999px;stroke-linecap:butt;stroke-linejoin:miter;stroke-opacity:1"
       id="path972" />
    <path
       sodipodi:nodetypes="ccccc"
       transform="scale(0.26458333)"
       d="m 433.66797,335.00781 c -12.94392,10.67146 -34.06538,14.17748 -56.81445,1.07422 -1.39004,0.74777 -2.90681,1.45088 -4.57813,2.09766 21.86389,12.15736 43.86077,15.88954 66.19336,-1.94141 -1.80709,-0.0655 -3.39275,-0.50238 -4.80078,-1.23047 z"
       style="fill:#d35f5f;fill-opacity:1;stroke:none;stroke-width:0.999999px;stroke-linecap:butt;stroke-linejoin:miter;stroke-opacity:1"
       id="path977" />
    <path
       d="m 110.91002,68.407711 c -4.40238,2.043043 -6.78481,1.300945 -8.91676,0.214458 l 0.24804,1.056783 c -2.07281,1.309118 -1.9086,1.995424 -2.377629,4.573362 l -0.387057,2.166276 -0.01395,0.07493 c -0.339192,-0.585808 -0.618055,-1.358693 -0.804604,-2.230353 -1.155004,0.176009 -0.992019,3.563139 1.54667,4.39818 -0.005,-0.01203 -0.009,-0.02414 -0.0139,-0.03617 0.0823,0.20188 0.16695,0.403591 0.2589,0.604613 4.39992,7.702418 8.59151,7.710929 12.22561,0 0.15404,-0.343202 0.28784,-0.688803 0.41031,-1.035079 1.49699,-0.731605 3.19858,-4.541927 1.13068,-4.527373 -0.065,4.61e-4 -0.14315,0.01396 -0.21704,0.02325 -0.0461,0.118903 -0.095,0.237103 -0.14728,0.355017 -0.1475,0.332468 -0.31763,0.661752 -0.51469,0.983404 -0.22813,-2.585614 -0.77999,-4.458388 -2.42725,-6.621301 z m 2.88252,6.593911 c -0.004,0.03807 -0.007,0.07609 -0.0109,0.114205 0.004,-0.03811 0.007,-0.07614 0.0109,-0.114205 z m -0.0646,0.555522 c -0.004,0.02942 -0.008,0.05892 -0.0124,0.08837 0.004,-0.02944 0.008,-0.05895 0.0124,-0.08837 z m -14.165027,1.189593 c 0.02381,0.0896 0.04626,0.179041 0.07183,0.268716 -0.02553,-0.08959 -0.04805,-0.179205 -0.07183,-0.268716 z m 0.171567,0.597379 c 0.03305,0.106881 0.0662,0.214029 0.101801,0.32091 -0.0356,-0.106939 -0.06876,-0.213973 -0.101801,-0.32091 z m 0.213423,0.642855 c 0.03654,0.102164 0.07476,0.204375 0.113687,0.306441 -0.0389,-0.102092 -0.07715,-0.204251 -0.113687,-0.306441 z"
       style="fill:#d3b59a;fill-opacity:1;stroke:none;stroke-width:0.369861px;stroke-linecap:butt;stroke-linejoin:miter;stroke-opacity:1"
       id="path965" />
    <path
       sodipodi:nodetypes="cccccccc"
       id="path1056"
       d="M 99.462785,76.493079 99.86356,74.25268 c 0.46904,-2.577935 0.30487,-3.264612 2.3777,-4.57373 l -0.24768,-1.056742 c 2.13196,1.086489 4.51389,1.828382 8.91628,-0.214661 1.64725,2.162914 2.19908,4.035567 2.42721,6.621177 3.0051,-4.905116 0.18782,-11.326395 -6.66423,-11.391369 -9.204678,-0.127908 -9.178668,9.455754 -7.210055,12.855724 z"
       style="fill:url(#linearGradient1573);fill-opacity:1;stroke:none;stroke-width:0.36986px;stroke-linecap:butt;stroke-linejoin:miter;stroke-opacity:1" />
  </g>
</svg>
