<?xml version="1.0" encoding="UTF-8" standalone="no"?>
<!-- Created with Inkscape (http://www.inkscape.org/) -->

<svg
   width="541"
   height="334"
   viewBox="0 0 143.13958 88.370836"
   version="1.1"
   id="svg4201"
   inkscape:version="1.1 (c68e22c387, 2021-05-23)"
   sodipodi:docname="student-thumbnail.svg"
   xmlns:inkscape="http://www.inkscape.org/namespaces/inkscape"
   xmlns:sodipodi="http://sodipodi.sourceforge.net/DTD/sodipodi-0.dtd"
   xmlns:xlink="http://www.w3.org/1999/xlink"
   xmlns="http://www.w3.org/2000/svg"
   xmlns:svg="http://www.w3.org/2000/svg">
  <sodipodi:namedview
     id="namedview4203"
     pagecolor="#ffffff"
     bordercolor="#666666"
     borderopacity="1.0"
     inkscape:pageshadow="2"
     inkscape:pageopacity="0.0"
     inkscape:pagecheckerboard="0"
     inkscape:document-units="mm"
     showgrid="false"
     units="px"
     inkscape:zoom="0.60221661"
     inkscape:cx="184.31906"
     inkscape:cy="561.25984"
     inkscape:window-width="1677"
     inkscape:window-height="893"
     inkscape:window-x="926"
     inkscape:window-y="360"
     inkscape:window-maximized="0"
     inkscape:current-layer="layer1" />
  <defs
     id="defs4198">
    <radialGradient
       gradientTransform="matrix(0.5814959,0,0,0.58242803,-233.95907,500.30332)"
       gradientUnits="userSpaceOnUse"
       r="149.99498"
       fy="38.607899"
       fx="-382.39206"
       cy="38.607899"
       cx="-382.39206"
       id="radialGradient1037"
       xlink:href="#linearGradient1035"
       inkscape:collect="always" />
    <linearGradient
       id="linearGradient1035"
       inkscape:collect="always">
      <stop
         id="stop1031"
         offset="0"
         style="stop-color:#89c1c3;stop-opacity:0.93725491" />
      <stop
         id="stop1033"
         offset="1"
         style="stop-color:#158789;stop-opacity:0.82352942" />
    </linearGradient>
    <linearGradient
       inkscape:collect="always"
       xlink:href="#linearGradient1129"
       id="linearGradient1131"
       x1="-542.4267"
       y1="-18.968853"
       x2="-532.21667"
       y2="-18.968853"
       gradientUnits="userSpaceOnUse"
       gradientTransform="matrix(0.5814959,0,0,0.58242802,-96.51322,561.36924)" />
    <linearGradient
       inkscape:collect="always"
       id="linearGradient1129">
      <stop
         style="stop-color:#786d64;stop-opacity:1;"
         offset="0"
         id="stop1125" />
      <stop
         style="stop-color:#483e37;stop-opacity:1"
         offset="1"
         id="stop1127" />
    </linearGradient>
    <linearGradient
       inkscape:collect="always"
       xlink:href="#linearGradient1137"
       id="linearGradient1139"
       x1="-532.31329"
       y1="-25.798546"
       x2="-520.17163"
       y2="-25.798546"
       gradientUnits="userSpaceOnUse"
       gradientTransform="matrix(0.5814959,0,0,0.58242802,-96.51322,561.36924)" />
    <linearGradient
       inkscape:collect="always"
       id="linearGradient1137">
      <stop
         style="stop-color:#28a0ad;stop-opacity:1;"
         offset="0"
         id="stop1133" />
      <stop
         style="stop-color:#217867;stop-opacity:1"
         offset="1"
         id="stop1135" />
    </linearGradient>
    <linearGradient
       inkscape:collect="always"
       xlink:href="#linearGradient1145"
       id="linearGradient1147"
       x1="-509.84467"
       y1="-16.351702"
       x2="-519.92108"
       y2="-16.351702"
       gradientUnits="userSpaceOnUse"
       gradientTransform="matrix(0.5814959,0,0,0.58242802,-96.51322,561.36924)" />
    <linearGradient
       inkscape:collect="always"
       id="linearGradient1145">
      <stop
         style="stop-color:#8d4f38;stop-opacity:1;"
         offset="0"
         id="stop1141" />
      <stop
         style="stop-color:#502d16;stop-opacity:1"
         offset="1"
         id="stop1143" />
    </linearGradient>
    <linearGradient
       gradientUnits="userSpaceOnUse"
       y2="86.834274"
       x2="94.557106"
       y1="80.379715"
       x1="96.302742"
       id="linearGradient1204"
       xlink:href="#linearGradient1202"
       inkscape:collect="always"
       gradientTransform="translate(-554.30535,435.42837)" />
    <linearGradient
       id="linearGradient1202"
       inkscape:collect="always">
      <stop
         id="stop1198"
         offset="0"
         style="stop-color:#d5a28a;stop-opacity:1" />
      <stop
         id="stop1200"
         offset="1"
         style="stop-color:#e4b88c;stop-opacity:1" />
    </linearGradient>
    <linearGradient
       inkscape:collect="always"
       xlink:href="#linearGradient931"
       id="linearGradient933"
       x1="124.76852"
       y1="108.63197"
       x2="120.71143"
       y2="112.60073"
       gradientUnits="userSpaceOnUse"
       gradientTransform="translate(-554.30535,435.42837)" />
    <linearGradient
       inkscape:collect="always"
       id="linearGradient931">
      <stop
         style="stop-color:#7fd39d;stop-opacity:1"
         offset="0"
         id="stop927" />
      <stop
         style="stop-color:#87c18b;stop-opacity:1"
         offset="1"
         id="stop929" />
    </linearGradient>
    <linearGradient
       inkscape:collect="always"
       xlink:href="#linearGradient931"
       id="linearGradient925"
       x1="508.49414"
       y1="453.91406"
       x2="493.11096"
       y2="455.66406"
       gradientUnits="userSpaceOnUse"
       gradientTransform="matrix(0.26458333,0,0,0.26458333,-554.30535,435.42837)" />
    <linearGradient
       inkscape:collect="always"
       xlink:href="#linearGradient931"
       id="linearGradient941"
       x1="69.737213"
       y1="108.36094"
       x2="72.482834"
       y2="111.60208"
       gradientUnits="userSpaceOnUse"
       gradientTransform="translate(-554.30535,435.42837)" />
    <linearGradient
       gradientUnits="userSpaceOnUse"
       y2="122.56267"
       x2="106.84354"
       y1="123.92098"
       x1="96.741562"
       id="linearGradient1223"
       xlink:href="#linearGradient1221"
       inkscape:collect="always"
       gradientTransform="translate(-554.30535,435.42837)" />
    <linearGradient
       id="linearGradient1221"
       inkscape:collect="always">
      <stop
         id="stop1217"
         offset="0"
         style="stop-color:#dcc9ab;stop-opacity:1" />
      <stop
         id="stop1219"
         offset="1"
         style="stop-color:#ffe6c5;stop-opacity:1" />
    </linearGradient>
    <linearGradient
       gradientTransform="matrix(-1,0,0,1,-360.82223,435.42837)"
       y2="122.56267"
       x2="106.84354"
       y1="123.92098"
       x1="96.741562"
       gradientUnits="userSpaceOnUse"
       id="linearGradient1227"
       xlink:href="#linearGradient1221"
       inkscape:collect="always" />
    <linearGradient
       gradientUnits="userSpaceOnUse"
       y2="124.9638"
       x2="47.912445"
       y1="122.37901"
       x1="47.912445"
       id="linearGradient999"
       xlink:href="#linearGradient997-1"
       inkscape:collect="always"
       gradientTransform="translate(-554.30535,435.42837)" />
    <linearGradient
       id="linearGradient997-1"
       inkscape:collect="always">
      <stop
         id="stop993-6"
         offset="0"
         style="stop-color:#ffd42a;stop-opacity:1" />
      <stop
         id="stop995"
         offset="1"
         style="stop-color:#aa8800;stop-opacity:1" />
    </linearGradient>
    <linearGradient
       gradientUnits="userSpaceOnUse"
       y2="121.94734"
       x2="62.153053"
       y1="121.94734"
       x1="49.836033"
       id="linearGradient959"
       xlink:href="#linearGradient957"
       inkscape:collect="always"
       gradientTransform="translate(-554.30535,435.42837)" />
    <linearGradient
       id="linearGradient957"
       inkscape:collect="always">
      <stop
         id="stop953"
         offset="0"
         style="stop-color:#b6b6b6;stop-opacity:1;" />
      <stop
         id="stop955"
         offset="1"
         style="stop-color:#ffe6c5;stop-opacity:1" />
    </linearGradient>
    <linearGradient
       inkscape:collect="always"
       xlink:href="#linearGradient1153"
       id="linearGradient1155"
       x1="-606.63116"
       y1="37.859936"
       x2="-597.88629"
       y2="48.788776"
       gradientUnits="userSpaceOnUse"
       gradientTransform="matrix(0.40856811,0,0,0.40922304,-248.32723,505.18999)" />
    <linearGradient
       inkscape:collect="always"
       id="linearGradient1153">
      <stop
         style="stop-color:#784421;stop-opacity:1"
         offset="0"
         id="stop1149" />
      <stop
         style="stop-color:#b5754e;stop-opacity:1"
         offset="1"
         id="stop1151" />
    </linearGradient>
    <linearGradient
       gradientUnits="userSpaceOnUse"
       y2="117.53635"
       x2="47.686363"
       y1="115.2874"
       x1="47.679813"
       id="linearGradient991"
       xlink:href="#linearGradient989"
       inkscape:collect="always"
       gradientTransform="translate(-554.30535,435.42837)" />
    <linearGradient
       id="linearGradient989"
       inkscape:collect="always">
      <stop
         id="stop985"
         offset="0"
         style="stop-color:#384273;stop-opacity:1;" />
      <stop
         id="stop987"
         offset="1"
         style="stop-color:#162d50;stop-opacity:1" />
    </linearGradient>
    <linearGradient
       gradientUnits="userSpaceOnUse"
       y2="115.22158"
       x2="57.764469"
       y1="115.22158"
       x1="51.257477"
       id="linearGradient967"
       xlink:href="#linearGradient957"
       inkscape:collect="always"
       gradientTransform="translate(-554.30535,435.42837)" />
    <linearGradient
       gradientUnits="userSpaceOnUse"
       y2="111.97131"
       x2="47.521038"
       y1="110.21845"
       x1="47.493126"
       id="linearGradient983"
       xlink:href="#linearGradient981"
       inkscape:collect="always"
       gradientTransform="translate(-554.30535,435.42837)" />
    <linearGradient
       id="linearGradient981"
       inkscape:collect="always">
      <stop
         id="stop977"
         offset="0"
         style="stop-color:#856b6b;stop-opacity:1;" />
      <stop
         id="stop979"
         offset="1"
         style="stop-color:#6c5353;stop-opacity:1" />
    </linearGradient>
    <linearGradient
       gradientUnits="userSpaceOnUse"
       y2="110.08626"
       x2="57.135971"
       y1="110.08626"
       x1="49.931545"
       id="linearGradient975"
       xlink:href="#linearGradient957"
       inkscape:collect="always"
       gradientTransform="translate(-554.30535,435.42837)" />
    <linearGradient
       gradientTransform="matrix(1,0,0,0.96352576,-547.42618,436.09786)"
       gradientUnits="userSpaceOnUse"
       y2="67.46875"
       x2="39.200977"
       y1="27.516666"
       x1="9.482358"
       id="linearGradient1083"
       xlink:href="#linearGradient1081"
       inkscape:collect="always" />
    <linearGradient
       id="linearGradient1081"
       inkscape:collect="always">
      <stop
         id="stop1077"
         offset="0"
         style="stop-color:#126e7c;stop-opacity:1;" />
      <stop
         id="stop1079"
         offset="1"
         style="stop-color:#126e7c;stop-opacity:0;" />
    </linearGradient>
    <linearGradient
       gradientTransform="matrix(0.26431536,0,0,0.26431536,-575.23075,463.36181)"
       gradientUnits="userSpaceOnUse"
       y2="92.265526"
       x2="261.81784"
       y1="60.448151"
       x1="240.62904"
       id="linearGradient1127"
       xlink:href="#linearGradient1101"
       inkscape:collect="always" />
    <linearGradient
       id="linearGradient1101"
       inkscape:collect="always">
      <stop
         id="stop1097"
         offset="0"
         style="stop-color:#7e791f;stop-opacity:1" />
      <stop
         id="stop1099"
         offset="1"
         style="stop-color:#ccb726;stop-opacity:1" />
    </linearGradient>
    <linearGradient
       gradientTransform="matrix(0.26431536,0,0,0.26431536,-575.23075,463.36181)"
       gradientUnits="userSpaceOnUse"
       y2="84.616447"
       x2="228.26431"
       y1="73.901878"
       x1="217.92442"
       id="linearGradient1115"
       xlink:href="#linearGradient1113"
       inkscape:collect="always" />
    <linearGradient
       id="linearGradient1113"
       inkscape:collect="always">
      <stop
         id="stop1109"
         offset="0"
         style="stop-color:#417f73;stop-opacity:1" />
      <stop
         id="stop1111"
         offset="1"
         style="stop-color:#63bda4;stop-opacity:1" />
    </linearGradient>
    <linearGradient
       inkscape:collect="always"
       xlink:href="#linearGradient1123"
       id="linearGradient1125"
       x1="98.949043"
       y1="49.142334"
       x2="98.852737"
       y2="59.49258"
       gradientUnits="userSpaceOnUse"
       gradientTransform="matrix(1.0007262,0,0,1.0484804,-492.87788,498.044)" />
    <linearGradient
       inkscape:collect="always"
       id="linearGradient1123">
      <stop
         style="stop-color:#d35f5f;stop-opacity:1;"
         offset="0"
         id="stop1119" />
      <stop
         style="stop-color:#782121;stop-opacity:1"
         offset="1"
         id="stop1121" />
    </linearGradient>
    <radialGradient
       inkscape:collect="always"
       xlink:href="#linearGradient1132"
       id="radialGradient1134"
       cx="99.496117"
       cy="59.021439"
       fx="99.496117"
       fy="59.021439"
       r="3.3208237"
       gradientTransform="matrix(1,0,0,1.2535211,-485.04604,496.4883)"
       gradientUnits="userSpaceOnUse" />
    <linearGradient
       inkscape:collect="always"
       id="linearGradient1132">
      <stop
         style="stop-color:#d35f5f;stop-opacity:1;"
         offset="0"
         id="stop1128" />
      <stop
         style="stop-color:#d3375f;stop-opacity:1"
         offset="1"
         id="stop1130" />
    </linearGradient>
  </defs>
  <g
     inkscape:label="Layer 1"
     inkscape:groupmode="layer"
     id="layer1">
    <g
       id="g3009"
       transform="matrix(0.99654722,0,0,0.99999404,529.66637,-475.89041)">
      <path
         id="path990-3"
         style="fill:url(#radialGradient1037);fill-opacity:1;stroke-width:1.04273;stroke-miterlimit:4;stroke-dasharray:none"
         d="m -529.83719,475.89323 a 87.221464,87.36128 0 0 0 -1.30998,2.08825 v 86.28311 c 0,0 31.9517,0 71.64058,0 39.68888,0 71.64059,0 71.64059,0 v -88.37136 c 0,0 -31.95171,0 -71.64059,0 -38.96313,0 -69.19138,0 -70.3306,0 z" />
      <path
         id="path1006"
         style="fill:#7fd39d;fill-opacity:1;stroke:none;stroke-width:0.264583px;stroke-linecap:butt;stroke-linejoin:miter;stroke-opacity:1"
         d="m -449.56508,523.30998 c -3.15781,3.54362 -5.99313,7.43937 -8.32765,11.56157 -3.05123,-6.06663 -5.82287,-8.12413 -8.67338,-11.31403 -8.01323,1.09294 -12.43081,3.54767 -13.91285,4.11446 0.6049,6.04395 -1.57072,14.45429 1.8464,18.10485 2.94143,2.63398 2.95082,10.49811 2.88975,18.48776 7.91818,0 7.24136,0 16.23622,0 11.08419,0 10.65776,0 20.00757,0 -0.0376,-5.12093 0.17538,-10.71149 1.71359,-18.78697 2.22583,-5.49162 2.88311,-11.37603 0.97978,-18.16169 -4.70942,-1.81991 -8.99331,-3.90512 -12.75943,-4.00595 z" />
      <rect
         ry="0"
         y="539.55304"
         x="-411.93213"
         height="21.536367"
         width="5.9370918"
         id="rect1035"
         style="fill:url(#linearGradient1131);fill-opacity:1;stroke:none;stroke-width:0.112413;stroke-miterlimit:4;stroke-dasharray:none;stroke-opacity:1" />
      <rect
         y="531.59747"
         x="-406.05121"
         height="29.491964"
         width="7.0603251"
         id="rect1037"
         style="fill:url(#linearGradient1139);fill-opacity:1;stroke:none;stroke-width:0.112413;stroke-miterlimit:4;stroke-dasharray:none;stroke-opacity:1" />
      <rect
         y="542.44598"
         x="-399.04703"
         height="18.643419"
         width="6.4184775"
         id="rect1039"
         style="fill:url(#linearGradient1147);fill-opacity:1;stroke:none;stroke-width:0.112413;stroke-miterlimit:4;stroke-dasharray:none;stroke-opacity:1" />
      <path
         d="m -457.29525,503.54669 c -1.10142,0.01 -2.10378,0.23464 -2.85254,0.84284 -0.25296,0.88767 -0.28276,2.24353 -2.58486,2.15129 -0.26116,-0.0104 1.61383,2.3974 -0.99735,2.697 -1.04484,0.11988 1.33556,1.97318 -0.89452,2.43448 -0.58347,0.12463 -1.23034,0.17056 -1.86087,0.12453 0.58929,0.80239 1.42925,1.33869 2.2748,1.94355 11.90048,12.88766 16.74303,1.48971 15.94218,-9.19117 -0.20839,-0.006 -0.39517,0.0609 -0.5855,0.20568 -0.93841,0.67491 -5.13708,-1.23667 -8.44134,-1.2082 z"
         style="fill:#e4b88c;fill-opacity:1;stroke:none;stroke-width:0.264583px;stroke-linecap:butt;stroke-linejoin:miter;stroke-opacity:1"
         id="path994" />
      <path
         style="fill:#434343;fill-opacity:1;stroke:none;stroke-width:0.264583px;stroke-linecap:butt;stroke-linejoin:miter;stroke-opacity:1"
         d="m -464.62432,511.67251 c 2.23008,-0.4613 -0.1506,-2.31506 0.89424,-2.43494 2.61119,-0.29961 0.73609,-2.70711 0.99726,-2.69664 2.3021,0.0922 2.33231,-1.26385 2.58527,-2.15152 2.99504,-2.43281 10.04243,1.26514 11.29364,0.36526 0.51444,-0.39135 1.00252,-0.22051 1.96332,0.45488 2.45747,1.42446 3.69103,-1.3248 2.76026,-2.60809 0.85264,-0.54831 1.72656,-1.37084 0.54839,-2.62403 1.91228,-3.47535 -0.44063,-3.76945 -2.53584,-3.90114 -0.3586,-1.55992 -1.06834,-1.61428 -2.07534,-1.71107 -0.60946,-0.33139 -1.19685,-2.46637 -3.97987,-0.61343 -0.30153,-0.10757 -0.59731,-1.94862 -2.76785,-0.83383 -1.33231,-1.51412 -2.43005,-0.9949 -3.41442,-0.2501 -0.92103,-0.8049 -4.26467,-0.70744 -4.74482,0.71498 -3.97001,1.27093 -3.74926,2.48644 -4.0466,4.77779 -0.0977,1.17321 -4.21362,1.74976 -2.70249,5.10565 0.35243,1.45086 -3.47403,3.41108 0.28036,5.46626 -0.52151,2.74916 2.69071,3.42141 4.94449,2.93997 z"
         id="path996"
         sodipodi:nodetypes="cssccccccccccccccc" />
      <path
         id="path1001"
         style="fill:url(#linearGradient1204);fill-opacity:1;stroke:none;stroke-width:0.264583px;stroke-linecap:butt;stroke-linejoin:miter;stroke-opacity:1"
         d="m -463.8045,514.17071 c 0.98838,3.13063 0.55849,5.25368 -0.65267,8.69352 2.23211,2.90605 4.88696,5.28374 6.48126,8.98705 1.36623,-3.02832 3.86638,-5.93849 6.27248,-8.36021 -2.75352,0.39164 -2.92587,-1.53113 -2.93831,-4.03231 -2.36212,0.15395 -5.40091,-1.3356 -9.16276,-5.28805 z" />
      <path
         d="m -428.19987,555.3704 c -1.18846,0.78838 -3.53428,0.97635 -7.2409,1.37408 -0.26218,0.84014 -0.44908,1.69726 -0.40721,2.60501 h -6.68125 l -0.0134,0.0512 h 7.15874 c 0.59136,0 1.06763,0.47627 1.06763,1.06763 v 0.62115 h 9.7653 c -1.54435,-2.43557 -2.69565,-4.9573 -3.64888,-5.71903 z"
         style="fill:#e4b88c;fill-opacity:1;stroke:none;stroke-width:0.264583px;stroke-linecap:butt;stroke-linejoin:miter;stroke-opacity:1"
         id="path1025" />
      <path
         d="m -436.80562,527.31564 c 1.90333,6.78565 1.24606,12.67005 -0.97978,18.16168 -0.03,0.15778 -0.0567,0.30919 -0.0858,0.46509 0.42936,0.39332 0.96274,0.40316 1.32964,0.89297 3.06091,4.08633 6.10888,6.41617 9.15088,8.01656 3.41754,-2.12402 6.82365,-3.1649 10.20093,-4.29327 -4.49723,-6.86935 -12.70913,-14.94701 -17.93484,-21.8271 -0.47048,-0.6194 -0.93226,-0.9804 -1.68103,-1.41593 z"
         style="fill:url(#linearGradient933);fill-opacity:1;stroke:none;stroke-width:0.264583px;stroke-linecap:butt;stroke-linejoin:miter;stroke-opacity:1"
         id="path1027" />
      <path
         d="m -417.18969,550.55881 c -3.37728,1.12837 -6.78339,2.16926 -10.20093,4.29328 -0.28533,0.1799 -0.56948,0.35822 -0.80925,0.51831 0.95323,0.76173 2.10453,3.28346 3.64887,5.71903 h 10.5022 c 0.39001,-2.75167 -0.92628,-7.14789 -3.14089,-10.53062 z"
         style="fill:url(#linearGradient925);fill-opacity:1;stroke:none;stroke-width:0.264583px;stroke-linecap:butt;stroke-linejoin:miter;stroke-opacity:1"
         id="path1047" />
      <path
         d="m -480.47893,527.67169 c -4.36047,1.51786 -19.19597,19.78112 -18.12293,29.98628 3.66969,-3.47697 7.53457,-6.98333 14.05033,-5.27254 -0.0587,-0.64075 -0.23495,-1.39949 -0.55139,-1.84485 2.26568,-1.93569 4.40742,-3.4992 6.45541,-4.78162 -3.39469,-3.65955 -1.22746,-12.05264 -1.83142,-18.08727 z"
         style="fill:url(#linearGradient941);fill-opacity:1;stroke:none;stroke-width:0.264583px;stroke-linecap:butt;stroke-linejoin:miter;stroke-opacity:1"
         id="path1056" />
      <path
         d="m -487.97038,551.9365 c -4.5475,0.0569 -7.65328,2.8999 -10.63139,5.72162 0.1496,1.24531 0.52942,2.40194 1.19476,3.43131 h 16.49976 v -0.62115 c 0,-0.59136 0.47628,-1.06763 1.06764,-1.06763 h 17.71261 c -0.0235,-0.0168 -0.0445,-0.0345 -0.0682,-0.0512 h -17.11885 c 0.0792,-1.71656 -0.65116,-3.25307 -1.18546,-4.8333 1.56595,0.0587 3.11123,0.10135 4.67879,0.16123 -2.92327,-0.67265 -5.74961,-1.31177 -7.96179,-2.07171 -1.52817,-0.48253 -2.91456,-0.68513 -4.18786,-0.66921 z"
         style="fill:#e4b88c;fill-opacity:1;stroke:none;stroke-width:0.264583px;stroke-linecap:butt;stroke-linejoin:miter;stroke-opacity:1"
         id="path1060" />
      <path
         d="m -479.83961,559.40065 c -0.59136,0 -1.06764,0.47627 -1.06764,1.06763 v 0.62115 h 46.59096 v -0.62115 c 0,-0.59136 -0.47628,-1.06763 -1.06764,-1.06763 z"
         style="fill:#b55c3d;fill-opacity:1;stroke:none;stroke-width:0.399129;stroke-miterlimit:4;stroke-dasharray:none;stroke-opacity:1"
         id="rect1029" />
      <path
         d="m -465.08399,522.82806 c -0.15314,0.0168 -0.52353,0.6014 -0.67437,0.6196 -0.27705,0.0335 -0.53883,0.0729 -0.80772,0.10955 2.85051,3.18991 5.62215,5.24742 8.67338,11.31404 2.33453,-4.12218 5.16985,-8.01795 8.32766,-11.56156 -0.73248,-0.0196 -1.44579,0.0342 -2.13839,0.18138 -2.4061,2.42172 -4.90625,5.33189 -6.27248,8.36021 -1.5943,-3.70331 -4.24915,-6.081 -6.48126,-8.98705 -0.22519,-0.0345 -0.41032,-0.0345 -0.62682,-0.0362 z"
         style="fill:#75b685;fill-opacity:1;stroke:none;stroke-width:0.264583px;stroke-linecap:butt;stroke-linejoin:miter;stroke-opacity:1"
         id="path1031" />
      <path
         sodipodi:nodetypes="cccccc"
         id="path1046"
         style="fill:url(#linearGradient1223);fill-opacity:1;stroke:none;stroke-width:0.264583px;stroke-linecap:butt;stroke-linejoin:miter;stroke-opacity:1"
         d="m -434.66263,554.51605 c -0.5343,1.58023 -1.2646,3.11674 -1.18544,4.8333 h -21.71572 v -2.12081 c 9.77998,-2.53106 16.11694,-2.45817 22.9012,-2.71249 z" />
      <path
         d="m -480.46495,554.51605 c 0.5343,1.58023 1.2646,3.11674 1.18544,4.8333 h 21.71572 v -2.12081 c -9.77998,-2.53106 -16.11694,-2.45817 -22.9012,-2.71249 z"
         style="fill:url(#linearGradient1227);fill-opacity:1;stroke:none;stroke-width:0.264583px;stroke-linecap:butt;stroke-linejoin:miter;stroke-opacity:1"
         id="path1225"
         sodipodi:nodetypes="cccccc" />
      <path
         d="m -487.91509,551.02855 c -4.85303,0.0692 -7.99266,1.9574 -10.70529,4.5992 -0.053,0.70481 -0.0494,1.38392 0.0186,2.03037 3.66969,-3.47697 7.53455,-6.98334 14.05031,-5.27255 -0.0347,-0.37931 -0.11174,-0.79899 -0.23358,-1.17151 -1.1187,-0.14034 -2.15885,-0.19936 -3.13004,-0.18551 z"
         style="fill:#75b685;fill-opacity:1;stroke:none;stroke-width:0.264583px;stroke-linecap:butt;stroke-linejoin:miter;stroke-opacity:1"
         id="path1002" />
      <path
         id="rect943"
         style="fill:url(#linearGradient999);fill-opacity:1;stroke:none;stroke-width:0.0921463;stroke-miterlimit:4;stroke-dasharray:none;stroke-opacity:1"
         d="m -515.61219,553.55164 c -2.11854,0 -3.82407,1.70553 -3.82407,3.82407 0,2.11854 1.70553,3.82408 3.82407,3.82408 h 24.32646 c 0.44608,0 0.43349,-0.97564 0,-0.97564 l -10.33982,-0.005 c -1.57549,0 -2.84377,-1.26827 -2.84377,-2.84376 0,-1.57548 1.26828,-2.84375 2.84377,-2.84375 l 10.33982,-0.004 c 0.45607,0 0.46565,-0.97671 0,-0.97671 z"
         sodipodi:nodetypes="ssssccscccs" />
      <path
         id="rect947"
         style="fill:url(#linearGradient959);fill-opacity:1;stroke:none;stroke-width:0.0921463;stroke-miterlimit:4;stroke-dasharray:none;stroke-opacity:1"
         d="m -501.62555,554.53195 c -1.57549,0 -2.84377,1.26827 -2.84377,2.84376 0,1.57549 1.26828,2.84376 2.84377,2.84376 h 9.31272 c -1.02513,-1.9872 -1.0186,-3.86124 0.16053,-5.68752 z"
         sodipodi:nodetypes="sssccs" />
      <rect
         style="fill:#e9bd14;fill-opacity:1;stroke:none;stroke-width:0.0921463;stroke-miterlimit:4;stroke-dasharray:none;stroke-opacity:1"
         id="rect965"
         width="10.93014"
         height="0.92849177"
         x="-517.32306"
         y="556.0155"
         ry="0.46424589" />
      <rect
         ry="0.46424589"
         y="557.80737"
         x="-517.32306"
         height="0.92849177"
         width="10.93014"
         id="rect967"
         style="fill:#e9bd14;fill-opacity:1;stroke:none;stroke-width:0.0921463;stroke-miterlimit:4;stroke-dasharray:none;stroke-opacity:1" />
      <ellipse
         style="fill:#ffd42a;fill-opacity:1;stroke:none;stroke-width:0.10583;stroke-linecap:round;stroke-miterlimit:4;stroke-dasharray:none;stroke-opacity:1"
         id="path968"
         cx="-714.71783"
         cy="88.924362"
         rx="9.2842016"
         ry="1.2201984"
         transform="matrix(0.76555621,-0.64336901,0.64216067,0.76657007,0,0)" />
      <path
         id="path914"
         style="fill:url(#linearGradient1155);fill-opacity:1;stroke:none;stroke-width:0.108976;stroke-linecap:round;stroke-miterlimit:4;stroke-dasharray:none;stroke-opacity:1"
         d="m -496.17739,520.68315 c -3.91833,3.29306 -4.36378,9.22768 -0.99577,13.26629 -0.35795,-0.56819 2.46088,-3.63346 6.33667,-6.89068 3.87403,-3.25572 7.37656,-5.50351 7.87541,-5.05415 -3.38597,-4.0232 -9.2981,-4.61433 -13.21631,-1.32146 z"
         sodipodi:nodetypes="ccscc" />
      <ellipse
         ry="0.92703551"
         rx="7.0535955"
         cy="88.924362"
         cx="-714.71783"
         id="ellipse970"
         style="fill:#fff6d5;fill-opacity:1;stroke:none;stroke-width:0.0804033;stroke-linecap:round;stroke-miterlimit:4;stroke-dasharray:none;stroke-opacity:1"
         transform="matrix(0.76555621,-0.64336901,0.64216067,0.76657007,0,0)" />
      <path
         id="rect974"
         style="fill:#87502c;fill-opacity:1;stroke:none;stroke-width:0.10514;stroke-linecap:round;stroke-miterlimit:4;stroke-dasharray:none;stroke-opacity:1"
         d="m -499.60425,518.78482 c -0.60509,0.5085 -0.6835,1.40593 -0.17581,2.01199 l 1.72389,2.05787 c 0.49526,-0.8005 1.12193,-1.53545 1.87878,-2.17153 0.75685,-0.63606 1.58826,-1.12665 2.46132,-1.47613 l -1.72377,-2.05771 c -0.50769,-0.60606 -1.40368,-0.6846 -2.00876,-0.17609 z" />
      <path
         id="rect903"
         style="fill:#502d16;fill-opacity:1;stroke:none;stroke-width:0.0911957;stroke-miterlimit:4;stroke-dasharray:none;stroke-opacity:1"
         d="m -516.15838,557.26897 a 2.5546865,1.6460952 0 0 0 -2.5395,1.4669 h -4.31088 c -0.68511,0 -1.23674,0.55251 -1.23674,1.23873 0,0.6862 0.55163,1.23854 1.23674,1.23854 h 13.70077 c 0.68511,0 1.23675,-0.55234 1.23675,-1.23854 0,-0.68622 -0.55164,-1.23873 -1.23675,-1.23873 h -4.31089 a 2.5546865,1.6460952 0 0 0 -2.5395,-1.4669 z" />
      <path
         sodipodi:nodetypes="ssssccscccs"
         d="m -512.82741,547.72398 c -1.85933,0 -3.3562,1.30498 -3.3562,2.92597 0,1.62099 1.49687,2.92597 3.3562,2.92597 h 21.35012 c 0.3915,0 0.38044,-0.7465 0,-0.7465 l -9.07475,-0.004 c -1.38273,0 -2.49583,-0.97041 -2.49583,-2.17589 0,-1.20548 1.1131,-2.17589 2.49583,-2.17589 l 9.07475,-0.003 c 0.40026,0 0.40867,-0.74733 0,-0.74733 z"
         style="fill:url(#linearGradient991);fill-opacity:1;stroke:none;stroke-width:0.075511;stroke-miterlimit:4;stroke-dasharray:none;stroke-opacity:1"
         id="path985" />
      <path
         sodipodi:nodetypes="sssccs"
         d="m -500.55204,548.47406 c -1.38273,0 -2.49583,0.97041 -2.49583,2.17589 0,1.20548 1.1131,2.17589 2.49583,2.17589 h 8.17331 c -0.89971,-1.5205 -0.89398,-2.95441 0.14089,-4.35178 z"
         style="fill:url(#linearGradient967);fill-opacity:1;stroke:none;stroke-width:0.075511;stroke-miterlimit:4;stroke-dasharray:none;stroke-opacity:1"
         id="path987" />
      <circle
         style="fill:#586773;fill-opacity:1;stroke:none;stroke-width:0.264583;stroke-miterlimit:4;stroke-dasharray:none;stroke-opacity:1"
         id="path1003"
         cx="-513.16266"
         cy="550.6496"
         r="0.77721351" />
      <circle
         r="0.77721351"
         cy="550.6496"
         cx="-510.82404"
         id="circle1005"
         style="fill:#586773;fill-opacity:1;stroke:none;stroke-width:0.264583;stroke-miterlimit:4;stroke-dasharray:none;stroke-opacity:1" />
      <circle
         style="fill:#586773;fill-opacity:1;stroke:none;stroke-width:0.264583;stroke-miterlimit:4;stroke-dasharray:none;stroke-opacity:1"
         id="circle1007"
         cx="-508.48544"
         cy="550.6496"
         r="0.77721351" />
      <path
         id="path1040"
         style="fill:url(#linearGradient983);fill-opacity:1;stroke:none;stroke-width:0.0673806;stroke-miterlimit:4;stroke-dasharray:none;stroke-opacity:1"
         d="m -515.5119,543.2907 c -1.94785,0 -2.34668,0.85155 -2.34668,2.08361 0,1.23206 0.39883,2.36425 2.34668,2.36425 h 22.36656 c 0.41013,0 0.39856,-0.56739 0,-0.56739 l -9.50679,-0.003 c -1.44855,0 -1.72168,-0.77064 -1.72168,-1.68689 0,-0.91624 0.27313,-1.62075 1.72168,-1.62075 l 9.50679,-0.002 c 0.41932,0 0.42813,-0.56802 0,-0.56802 z"
         sodipodi:nodetypes="ssssccscccs" />
      <path
         id="path1042"
         style="fill:url(#linearGradient975);fill-opacity:1;stroke:none;stroke-width:0.0673806;stroke-miterlimit:4;stroke-dasharray:none;stroke-opacity:1"
         d="m -502.65213,543.86081 c -1.44855,0 -1.72168,0.70451 -1.72168,1.62075 0,0.91624 0.27313,1.68689 1.72168,1.68689 h 8.56243 c -0.39654,-0.42769 -0.72049,-1.95749 0.1476,-3.30764 z"
         sodipodi:nodetypes="sssccs" />
      <rect
         style="fill:#917c6f;fill-opacity:1;stroke:none;stroke-width:0.264583;stroke-miterlimit:4;stroke-dasharray:none;stroke-opacity:1"
         id="rect1050"
         width="10.383421"
         height="1.5434813"
         x="-516.46667"
         y="544.7428"
         ry="0.77174067" />
      <path
         id="path1038"
         style="color:#000000;font-style:normal;font-variant:normal;font-weight:normal;font-stretch:normal;font-size:medium;line-height:normal;font-family:sans-serif;font-variant-ligatures:normal;font-variant-position:normal;font-variant-caps:normal;font-variant-numeric:normal;font-variant-alternates:normal;font-variant-east-asian:normal;font-feature-settings:normal;font-variation-settings:normal;text-indent:0;text-align:start;text-decoration:none;text-decoration-line:none;text-decoration-style:solid;text-decoration-color:#000000;letter-spacing:normal;word-spacing:normal;text-transform:none;writing-mode:lr-tb;direction:ltr;text-orientation:mixed;dominant-baseline:auto;baseline-shift:baseline;text-anchor:start;white-space:normal;shape-padding:0;shape-margin:0;inline-size:0;clip-rule:nonzero;display:inline;overflow:visible;visibility:visible;isolation:auto;mix-blend-mode:normal;color-interpolation:sRGB;color-interpolation-filters:linearRGB;solid-color:#000000;solid-opacity:1;vector-effect:none;fill:#784421;fill-opacity:1;fill-rule:nonzero;stroke:none;stroke-width:0.0911957;stroke-linecap:round;stroke-linejoin:miter;stroke-miterlimit:4;stroke-dasharray:none;stroke-dashoffset:0;stroke-opacity:1;color-rendering:auto;image-rendering:auto;shape-rendering:auto;text-rendering:auto;enable-background:accumulate;stop-color:#000000"
         d="m -499.65913,520.94102 c -9.17864,9.49839 -17.19731,20.08026 -17.32646,36.41655 a 2.5546865,1.6460952 0 0 1 0.82721,-0.0886 2.5546865,1.6460952 0 0 1 0.99435,0.12995 c 0.10829,-15.69931 7.65998,-25.70375 16.68238,-35.05215 z" />
      <rect
         style="fill:#217a6b;fill-opacity:1;stroke:none;stroke-width:0.264583;stroke-miterlimit:4;stroke-dasharray:none;stroke-opacity:1"
         id="rect1055"
         width="1.5875"
         height="14.353645"
         x="-403.31479"
         y="534.71326"
         ry="0.77174199" />
      <circle
         style="fill:#756a61;fill-opacity:1;stroke:none;stroke-width:0.264583;stroke-miterlimit:4;stroke-dasharray:none;stroke-opacity:1"
         id="path1057"
         cx="-408.96356"
         cy="542.68384"
         r="0.95911455" />
      <circle
         style="fill:#756a61;fill-opacity:1;stroke:none;stroke-width:0.264583;stroke-miterlimit:4;stroke-dasharray:none;stroke-opacity:1"
         id="path1059"
         cx="-408.96356"
         cy="546.15649"
         r="0.9921875" />
      <circle
         style="fill:#756a61;fill-opacity:1;stroke:none;stroke-width:0.264583;stroke-miterlimit:4;stroke-dasharray:none;stroke-opacity:1"
         id="path1061"
         cx="-408.96356"
         cy="549.66223"
         r="0.9921875" />
      <path
         sodipodi:type="star"
         style="opacity:1;fill:#5b331c;fill-opacity:1;stroke:none;stroke-width:0.264583;stroke-miterlimit:4;stroke-dasharray:none;stroke-opacity:1"
         id="path1063"
         sodipodi:sides="3"
         sodipodi:cx="158.46754"
         sodipodi:cy="111.8526"
         sodipodi:r1="1.7070239"
         sodipodi:r2="0.85351193"
         sodipodi:arg1="2.6179939"
         sodipodi:arg2="3.6651914"
         inkscape:flatsided="false"
         inkscape:rounded="0"
         inkscape:randomized="0"
         inkscape:transform-center-x="2.0233332e-06"
         inkscape:transform-center-y="-0.42675733"
         transform="translate(-554.30535,435.42837)"
         d="m 156.98922,112.70611 0.73916,-1.28027 0.73916,-1.28026 0.73917,1.28026 0.73916,1.28027 -1.47833,0 z" />
      <path
         id="rect1009"
         style="fill:#917c6f;fill-opacity:1;stroke:none;stroke-width:0.0872244;stroke-linecap:round;stroke-linejoin:round;stroke-miterlimit:4;stroke-dasharray:none;stroke-opacity:1"
         d="m -523.5342,561.08959 c -1.866,0 -3.39511,1.37697 -3.64474,3.175 3.27342,0 30.18186,0 67.67235,0 39.68888,0 71.64059,0 71.64059,0 v -2.95899 c -0.38684,-0.13745 -0.8021,-0.21601 -1.23714,-0.21601 z" />
      <path
         d="m -427.2821,554.78646 c -0.0362,0.0222 -0.0723,0.0431 -0.10852,0.0656 -0.28533,0.1799 -0.56948,0.35822 -0.80925,0.51831 0.95323,0.76173 2.10453,3.28346 3.64887,5.71903 h 1.16789 c -1.07283,-2.49475 -2.37416,-4.73248 -3.89899,-6.30297 z"
         style="fill:#79b789;fill-opacity:1;stroke:none;stroke-width:0.264583px;stroke-linecap:butt;stroke-linejoin:miter;stroke-opacity:1"
         id="path1007" />
      <path
         id="rect1012-5"
         style="fill:#e3dbdb;fill-opacity:1;stroke:none;stroke-width:1.32292"
         d="m -531.14717,475.89323 v 37.58737 h 30.8782 c 0.25913,0 0.46768,-0.20854 0.46768,-0.46768 v -37.11969 c -10.20561,0 -31.34588,0 -31.34588,0 z" />
      <path
         id="rect1014-7"
         style="fill:url(#linearGradient1083);fill-opacity:1;stroke:none;stroke-width:1.16728"
         d="m -531.14717,475.89323 v 32.25541 h 28.60342 c 0.22371,0 0.4041,-0.18042 0.4041,-0.40413 v -31.85128 c -8.86934,0 -29.00752,0 -29.00752,0 z" />
      <circle
         r="1.008724"
         cy="509.92804"
         cx="-501.98447"
         id="path1016"
         style="fill:#a02c2c;fill-opacity:1;stroke:#000000;stroke-width:1.32292;stroke-opacity:0" />
      <path
         d="m -507.61569,481.19508 a 7.9024786,7.9024786 0 0 0 -7.89202,7.90237 7.9024786,7.9024786 0 0 0 7.90236,7.90235 7.9024786,7.9024786 0 0 0 5.46581,-2.19521 v -11.41481 a 7.9024786,7.9024786 0 0 0 -5.46581,-2.1947 7.9024786,7.9024786 0 0 0 -0.0103,0 z"
         style="fill:url(#linearGradient1127);fill-opacity:1;stroke:none;stroke-width:0.349668"
         id="path1095" />
      <circle
         r="2.6924374"
         cy="485.14609"
         cx="-514.77325"
         id="path1107"
         style="fill:url(#linearGradient1115);fill-opacity:1;stroke:none;stroke-width:0.349668" />
      <rect
         ry="0.36380208"
         y="509.71014"
         x="-531.50153"
         height="0.72760415"
         width="15.775781"
         id="rect1149"
         style="opacity:0.478261;fill:#999999;fill-opacity:1;stroke:none;stroke-width:1.32292" />
      <rect
         ry="0.24804688"
         y="511.13229"
         x="-528.02887"
         height="0.49609375"
         width="8.8304682"
         id="rect1151"
         style="opacity:0.478261;fill:#999999;fill-opacity:1;stroke:none;stroke-width:1.32292" />
      <rect
         style="fill:url(#linearGradient1125);fill-opacity:1;stroke-width:1.41028"
         id="rect1117"
         width="2.7118244"
         height="16.961937"
         x="-395.13226"
         y="545.70532"
         ry="0.28198826"
         inkscape:transform-center-x="-1.3343851"
         inkscape:transform-center-y="-8.3201986"
         transform="matrix(0.99207725,0.1256293,-0.13117799,0.99135883,0,0)" />
      <ellipse
         style="fill:url(#radialGradient1134);fill-opacity:1;stroke-width:1.32292"
         id="path1115"
         cx="-385.54993"
         cy="570.4729"
         rx="3.3208237"
         ry="4.1627226"
         transform="rotate(8.3668722)" />
    </g>
  </g>
</svg>
